<?xml version="1.0" encoding="UTF-8"?>
<svg version="1.1" xmlns="http://www.w3.org/2000/svg" width="2000" height="2471">
<path d="M0 0 C1.32547852 0.57983643 1.32547852 0.57983643 2.67773438 1.17138672 C29.23730486 12.94848679 54.4502833 28.70251559 77 47 C77.92296875 47.7321875 78.8459375 48.464375 79.796875 49.21875 C85.83415065 54.06221408 91.55819431 59.1824876 97.2265625 64.4453125 C99.47077035 66.51251241 101.74185859 68.5203508 104.0625 70.5 C111.98134057 77.37949274 119.23107753 84.99775692 126 93 C126.7734375 93.88429688 127.546875 94.76859375 128.34375 95.6796875 C150.4305603 121.08450884 168.59713217 149.59875867 183 180 C183.34595215 180.71849121 183.6919043 181.43698242 184.04833984 182.17724609 C206.99997742 230.0884034 218.26927324 283.27498198 218.1875 336.3125 C218.18659363 337.41392334 218.18659363 337.41392334 218.18566895 338.53759766 C218.00850381 418.65080743 191.61883781 498.78696006 142 562 C141.37222656 562.80824219 140.74445312 563.61648438 140.09765625 564.44921875 C132.73591901 573.7981734 125.14102654 583.18763715 116.5546875 591.4453125 C114.86455958 593.13544042 113.34898869 594.91944649 111.8125 596.75 C107.4356028 601.82366783 102.44826073 606.22168726 97.46386719 610.68017578 C96.16247252 611.8535146 94.88053764 613.04835645 93.6015625 614.24609375 C86.56024675 620.79475771 78.96177416 626.56587145 71.26318359 632.31054688 C69.78110956 633.41690635 68.30213648 634.52743493 66.82666016 635.64257812 C25.11286352 667.11968596 -39.8073694 702 -94 702 C-94 1023.42 -94 1344.84 -94 1676 C61.43 1675.505 61.43 1675.505 220 1675 C192.10555463 1646.35273088 192.10555463 1646.35273088 163 1619 C161.69346316 1617.76552884 160.399101 1616.51767957 159.13061523 1615.24414062 C158.14700516 1614.2604248 158.14700516 1614.2604248 157.14352417 1613.25683594 C156.45549713 1612.56364258 155.76747009 1611.87044922 155.05859375 1611.15625 C154.30949738 1610.40569336 153.560401 1609.65513672 152.78860474 1608.88183594 C151.17574757 1607.26519752 149.56404576 1605.64740575 147.95339966 1604.02856445 C145.39899008 1601.46129622 142.84138663 1598.89724802 140.28295898 1596.33398438 C133.93200315 1589.96971647 127.58651683 1583.60000415 121.24084473 1577.23046875 C115.86876265 1571.8386057 110.49460384 1566.44882867 105.1177063 1561.06176758 C102.60756905 1558.54518477 100.10048164 1556.025591 97.59350586 1553.50585938 C96.04295545 1551.95167379 94.49226298 1550.39762992 92.94140625 1548.84375 C92.25337921 1548.15055664 91.56535217 1547.45736328 90.85647583 1546.74316406 C87.02765739 1542.91393401 83.08403981 1539.29872373 78.98623657 1535.76039124 C75.56776243 1532.73061522 72.36704336 1529.48918589 69.15039062 1526.24804688 C68.41104782 1525.5072438 67.67170502 1524.76644073 66.90995789 1524.00318909 C65.31838136 1522.40783183 63.72796019 1520.81132125 62.13859558 1519.21376038 C59.61779209 1516.68009588 57.09379285 1514.14965365 54.56896973 1511.61999512 C48.30148881 1505.3392036 42.03947843 1499.052967 35.77728271 1492.76690674 C30.47566147 1487.44550288 25.17196238 1482.12618628 19.86552429 1476.80958557 C17.38862513 1474.32624189 14.91477659 1471.83988703 12.44104004 1469.35339355 C10.91071265 1467.81943092 9.38024315 1466.28561004 7.84960938 1464.75195312 C7.17093307 1464.0681105 6.49225677 1463.38426788 5.79301453 1462.67970276 C1.91000394 1458.7962693 -2.08067421 1455.10430979 -6.25321198 1451.53299713 C-18.67938972 1440.62767001 -26.89203969 1427.53231658 -28.16796875 1410.796875 C-28.32123953 1394.73409675 -22.22983824 1381.58559217 -11.17578125 1370.10546875 C-10.05491733 1368.98964242 -8.9254298 1367.88238029 -7.78564453 1366.78588867 C-6.14958999 1365.14961045 -4.67514598 1363.468812 -3.19140625 1361.6953125 C3.26993415 1354.25798267 10.46791218 1347.47960516 17.46630859 1340.55419922 C25.71187855 1332.52308334 25.71187855 1332.52308334 33.46875 1324.03125 C39.80374243 1316.55900229 47.08311582 1309.86743276 54.0390625 1302.98144531 C63.32853125 1293.83130715 63.32853125 1293.83130715 72.0625 1284.16015625 C77.8808347 1277.67318228 84.27444296 1271.68148617 90.46630859 1265.55419922 C98.72605785 1257.50621144 98.72605785 1257.50621144 106.5 1249 C112.6526628 1241.74281366 119.70928881 1235.24074599 126.46630859 1228.55419922 C134.72605785 1220.50621144 134.72605785 1220.50621144 142.5 1212 C148.6526628 1204.74281366 155.70928881 1198.24074599 162.46630859 1191.55419922 C170.72605785 1183.50621144 170.72605785 1183.50621144 178.5 1175 C184.6526628 1167.74281366 191.70928881 1161.24074599 198.46630859 1154.55419922 C206.72605785 1146.50621144 206.72605785 1146.50621144 214.5 1138 C220.6526628 1130.74281366 227.70928881 1124.24074599 234.46630859 1117.55419922 C242.72605785 1109.50621144 242.72605785 1109.50621144 250.5 1101 C256.6526628 1093.74281366 263.70928881 1087.24074599 270.46630859 1080.55419922 C278.71187855 1072.52308334 278.71187855 1072.52308334 286.46875 1064.03125 C292.80374243 1056.55900229 300.08311582 1049.86743276 307.0390625 1042.98144531 C316.32853125 1033.83130715 316.32853125 1033.83130715 325.0625 1024.16015625 C330.8808347 1017.67318228 337.27444296 1011.68148617 343.46630859 1005.55419922 C351.72605785 997.50621144 351.72605785 997.50621144 359.5 989 C365.6526628 981.74281366 372.70928881 975.24074599 379.46630859 968.55419922 C387.72605785 960.50621144 387.72605785 960.50621144 395.5 952 C401.6526628 944.74281366 408.70928881 938.24074599 415.46630859 931.55419922 C423.72605785 923.50621144 423.72605785 923.50621144 431.5 915 C437.6526628 907.74281366 444.70928881 901.24074599 451.46630859 894.55419922 C459.71542112 886.51886353 459.71542112 886.51886353 467.4765625 878.0234375 C473.1570909 871.32120545 479.63613404 865.30026587 485.875 859.125 C488.52108606 856.5054633 491.16386413 853.88265329 493.8046875 851.2578125 C494.7155159 850.35943161 494.7155159 850.35943161 495.64474487 849.44290161 C498.69815344 846.50868824 498.69815344 846.50868824 501 843 C501.66 843 502.32 843 503 843 C503.22494141 842.4519873 503.44988281 841.90397461 503.68164062 841.33935547 C505.38908649 838.30958763 507.65990475 836.01536638 510.09375 833.5703125 C510.59990845 833.05749725 511.10606689 832.54468201 511.62756348 832.0163269 C512.70088503 830.93289793 513.77692077 829.85215199 514.85546875 828.77392578 C516.47735561 827.1477049 518.08259165 825.506237 519.6875 823.86328125 C530.03380291 813.40257072 541.82499943 805.12407412 557 804 C557.6496875 803.9484375 558.299375 803.896875 558.96875 803.84375 C574.22252908 803.18054221 586.37567243 809.46804265 597.33001709 819.49118042 C601.69738629 823.59493005 605.93934896 827.81654531 610.1640625 832.06640625 C611.08214691 832.98590561 612.00023132 833.90540497 612.94613647 834.85276794 C615.35175037 837.26214567 617.75434263 839.67451343 620.15625 842.08758545 C622.62182763 844.56351145 625.09034526 847.0365027 627.55859375 849.50976562 C632.37522589 854.33702644 637.1886622 859.16746243 642 864 C647.09151879 859.74148317 651.84250522 855.28220692 656.50488281 850.56103516 C657.21975357 849.84149155 657.93462433 849.12194794 658.67115784 848.38059998 C660.21303549 846.82827593 661.75381118 845.27485671 663.29358673 843.72044754 C665.73879281 841.2530713 668.18807213 838.78980774 670.63861084 836.32772827 C677.60240787 829.33048247 684.56209628 822.32919312 691.51123047 815.31738281 C695.77270301 811.01806221 700.04162475 806.7262571 704.31526947 802.43903732 C705.93342004 800.81288349 707.54880035 799.18396776 709.16123199 797.5521431 C737.48198177 768.89676524 737.48198177 768.89676524 757.21899414 768.67041016 C758.50277954 768.67886963 758.50277954 768.67886963 759.8125 768.6875 C761.14752563 768.69595947 761.14752563 768.69595947 762.50952148 768.70458984 C768.78174431 768.82077407 774.24857563 769.33223173 780 772 C780.88558594 772.39058594 781.77117187 772.78117188 782.68359375 773.18359375 C803.09157423 783.1752957 810.30962998 804.50774459 819.19581604 823.91415405 C822.53943919 831.20095509 825.97257675 838.44510312 829.4055481 845.69012451 C834.81477502 857.10646965 840.19566721 868.53447422 845.5 880 C850.389038 890.56487074 855.33662025 901.10081519 860.3125 911.625 C860.67082916 912.38290833 861.02915833 913.14081665 861.39834595 913.92169189 C862.85071948 916.99341687 864.3032027 920.06508993 865.75584412 923.13668823 C869.57447736 931.21232082 873.38330338 939.2925578 877.1875 947.375 C877.51901062 948.07927124 877.85052124 948.78354248 878.19207764 949.50915527 C883.07982907 959.89514268 887.94077517 970.2933997 892.78692627 980.69885254 C898.03633708 991.96762284 903.34428558 1003.20829858 908.66036987 1014.44573975 C913.31155657 1024.27989991 917.93189626 1034.12690874 922.5 1044 C927.38908557 1054.56484991 932.33667576 1065.10078786 937.3125 1075.625 C937.67049683 1076.38224365 938.02849365 1077.1394873 938.39733887 1077.91967773 C939.84851902 1080.98906158 941.2998306 1084.05838323 942.75131226 1087.12762451 C946.59131836 1095.24840077 950.42355395 1103.37282591 954.25 1111.5 C954.58312195 1112.2074939 954.9162439 1112.91498779 955.25946045 1113.6439209 C959.68230566 1123.04041625 964.07406148 1132.45073556 968.4375 1141.875 C973.34851953 1152.48096486 978.31742817 1163.05842629 983.3125 1173.625 C983.67073853 1174.38305939 984.02897705 1175.14111877 984.39807129 1175.92214966 C987.62741265 1182.75563103 990.85779393 1189.58861927 994.09277344 1196.41943359 C998.42599583 1205.57115775 1002.73956317 1214.73177768 1007.02233887 1223.90722656 C1008.01592779 1226.03409489 1009.01230407 1228.1596435 1010.00878906 1230.28515625 C1011.64958595 1233.78961187 1013.27563173 1237.30059888 1014.89175415 1240.8164978 C1015.49263821 1242.11910036 1016.09758131 1243.41984038 1016.7071228 1244.71841431 C1024.89331817 1262.18285557 1027.24747509 1276.68960681 1021 1295 C1017.46350029 1303.14190929 1011.28895978 1309.6695879 1005.49853516 1316.28369141 C1003.50135948 1318.57110506 1001.52951479 1320.87968967 999.55712891 1323.18847656 C998.05230741 1324.94942743 996.54425005 1326.70755332 995.03515625 1328.46484375 C992.02129009 1331.97472388 989.01039195 1335.48714002 986 1339 C985.00001341 1340.16667816 984.0000134 1341.33334482 983 1342.5 C982.505 1343.0775 982.01 1343.655 981.5 1344.25 C932 1402 882.5 1459.75 759.49975586 1603.25024414 C758.50051604 1604.41605104 757.50132977 1605.58190386 756.50219727 1606.74780273 C753.99100539 1609.67800398 751.47886607 1612.60738291 748.96484375 1615.53515625 C744.12423445 1621.17421656 739.29506367 1626.82213425 734.5 1632.5 C729.2034411 1638.77168949 723.86395577 1645.00591071 718.51611328 1651.23388672 C716.00899015 1654.15442275 713.50462613 1657.0773226 711 1660 C710.01563843 1661.14844901 709.03126338 1662.29688646 708.046875 1663.4453125 C707.55380859 1664.02055664 707.06074219 1664.59580078 706.55273438 1665.18847656 C699.77636719 1673.09423828 699.77636719 1673.09423828 693 1681 C693.7734375 1681.53367187 694.546875 1682.06734375 695.34375 1682.6171875 C707.79777721 1691.52613271 716.97346972 1702.52938442 720 1718 C720.29094567 1721.93441034 720.2784995 1725.8580129 720.26742554 1729.80178833 C720.27422221 1731.57947186 720.27422221 1731.57947186 720.28115618 1733.39306819 C720.29160417 1736.67005511 720.29312981 1739.94690353 720.29076743 1743.22390175 C720.29035838 1746.76327195 720.301407 1750.30260973 720.31088257 1753.84196472 C720.32747561 1760.77230956 720.33299139 1767.70262036 720.33410732 1774.6329834 C720.3350588 1780.26962848 720.33917406 1785.90626236 720.34550858 1791.5429039 C720.36311795 1807.53891969 720.37234816 1823.53490868 720.37084763 1839.53093423 C720.37072776 1840.82369796 720.37072776 1840.82369796 720.37060547 1842.14257812 C720.37048283 1843.43692865 720.37048283 1843.43692865 720.37035771 1844.75742768 C720.36954535 1858.73211014 720.38867108 1872.70668468 720.4168822 1886.68133594 C720.44564916 1901.04521563 720.45942034 1915.40904275 720.45769465 1929.77295196 C720.45703196 1937.83116519 720.46247058 1945.88926534 720.48405075 1953.94745255 C720.50231301 1960.81051309 720.50656884 1967.67340933 720.4930319 1974.53648372 C720.48652695 1978.03386811 720.48629437 1981.53093776 720.5037384 1985.0282917 C720.51923796 1988.83124242 720.50985011 1992.63337594 720.49447632 1996.43630981 C720.50476344 1997.52593399 720.51505057 1998.61555817 720.52564943 1999.73820126 C720.39931851 2013.95737652 715.3664253 2026.38026212 705.6875 2036.8125 C695.41088566 2046.37959308 681.98338866 2051.24146292 668.06394958 2051.03036499 C667.3901257 2051.02189722 666.71630181 2051.01342944 666.02205902 2051.00470507 C664.55314313 2050.98573201 663.08425665 2050.9643635 661.61540604 2050.9408741 C657.52519832 2050.87576654 653.4347548 2050.82888554 649.34434509 2050.77841187 C648.4734307 2050.7671306 647.60251631 2050.75584934 646.70521057 2050.74422622 C635.53212183 2050.60256234 624.35842677 2050.55332083 613.18461502 2050.50232005 C602.31317081 2050.45243147 591.44414754 2050.37251273 580.57397461 2050.19433594 C571.92844838 2050.05278842 563.28532517 2049.97893382 554.63859898 2049.98395598 C550.06788033 2049.98417478 545.50301852 2049.95130861 540.93362236 2049.83649826 C522.86438949 2048.58800629 522.86438949 2048.58800629 506.21841621 2053.87407875 C501.88176977 2058.24765462 499.21248144 2063.12732895 496.92731667 2068.80422497 C495.7146929 2071.67557312 494.03869345 2074.05227895 492.16015625 2076.52734375 C491.64275879 2077.26509033 491.12536133 2078.00283691 490.59228516 2078.76293945 C490.08745605 2079.48054443 489.58262695 2080.19814941 489.0625 2080.9375 C487.8840987 2082.61717636 486.70571376 2084.29686419 485.52734375 2085.9765625 C484.65118408 2087.22421387 484.65118408 2087.22421387 483.75732422 2088.49707031 C480.87665955 2092.59995641 478.00046689 2096.70597003 475.125 2100.8125 C474.55418701 2101.62750977 473.98337402 2102.44251953 473.39526367 2103.28222656 C469.56332 2108.75688882 465.74405401 2114.24023641 461.93164062 2119.72851562 C459.89990023 2122.65167488 457.86412984 2125.5719975 455.828125 2128.4921875 C453.42362941 2131.94310615 451.03784206 2135.4053845 448.671875 2138.8828125 C438.9902146 2153.02730377 428.50713353 2165.86843538 411 2170 C406.20821661 2170.78966415 401.61849661 2171.12563003 396.76444942 2171.1276505 C395.71683289 2171.13012667 395.71683289 2171.13012667 394.64805239 2171.13265286 C392.30964804 2171.13696398 389.9713071 2171.13418091 387.63290119 2171.13142776 C385.93147288 2171.13307805 384.23004495 2171.13516462 382.52861765 2171.13764787 C377.83708706 2171.14321589 373.14557472 2171.14254185 368.45404188 2171.14087028 C363.35600005 2171.14013966 358.25796337 2171.14516099 353.15992373 2171.1494453 C343.04143892 2171.15702928 332.92295939 2171.15921856 322.80447203 2171.15977435 C310.68763951 2171.16068759 298.57081188 2171.16735389 286.45398146 2171.17412117 C257.86327291 2171.18980556 229.2725656 2171.19586991 200.68185379 2171.2005282 C186.13646077 2171.20291147 171.59106822 2171.20661494 157.04567556 2171.2105653 C110.3903095 2171.22322926 63.73494346 2171.23401348 17.07957571 2171.23740576 C14.84981817 2171.237568 12.62006063 2171.23773356 10.39030308 2171.23790014 C5.9184865 2171.23823394 1.44666992 2171.23856442 -3.02514666 2171.2388947 C-8.26056177 2171.2392816 -13.49597687 2171.23967121 -18.73139197 2171.24006577 C-20.22981021 2171.24017818 -21.72822845 2171.2402896 -23.22664668 2171.24040002 C-71.35630587 2171.24394987 -119.48595013 2171.25903031 -167.61560362 2171.28233776 C-202.20064354 2171.29907927 -236.78568065 2171.31455432 -271.37072468 2171.31907272 C-272.0819664 2171.31916621 -272.79320813 2171.3192597 -273.52600264 2171.31935601 C-289.13947412 2171.32137505 -304.75294556 2171.3225311 -320.36641716 2171.3228846 C-325.95321897 2171.32302077 -331.54002078 2171.32322977 -337.12682258 2171.32347785 C-338.51668184 2171.32353941 -339.9065411 2171.32359773 -341.29640037 2171.3236528 C-363.44248088 2171.32457259 -385.58854581 2171.33454041 -407.73462119 2171.34911029 C-430.66092449 2171.36413314 -453.58720942 2171.36831525 -476.51351812 2171.36001733 C-489.73289715 2171.35555461 -502.95221231 2171.35944738 -516.17158297 2171.37525584 C-524.99831711 2171.3849861 -533.82500636 2171.38384628 -542.65174006 2171.37381961 C-547.68323851 2171.36841353 -552.71461407 2171.36776265 -557.74610247 2171.38032833 C-562.32558083 2171.39166987 -566.90483633 2171.38913995 -571.48430699 2171.37566125 C-573.12856369 2171.37323052 -574.77283758 2171.37579973 -576.41707535 2171.38405773 C-593.46016424 2171.4640109 -609.18770051 2168.43685604 -621.96875 2156.2578125 C-631.49334125 2145.670863 -636.16772233 2132.98894475 -636.1276505 2118.87791723 C-636.12930128 2118.05914875 -636.13095206 2117.24038026 -636.13265286 2116.39680062 C-636.13698812 2113.6360906 -636.13417331 2110.87543366 -636.13142776 2108.11472225 C-636.13307691 2106.11376426 -636.13516296 2104.11280659 -636.13764787 2102.11184946 C-636.14323062 2096.57934 -636.14253917 2091.04684598 -636.14087028 2085.51433461 C-636.14014109 2079.50813351 -636.14515762 2073.50193684 -636.1494453 2067.49573761 C-636.15615311 2056.95765412 -636.1591234 2046.41957401 -636.15958023 2035.8814888 C-636.16008234 2024.57148775 -636.16272643 2013.26149028 -636.16798782 2001.9514904 C-636.16831796 2001.23770204 -636.16864809 2000.52391368 -636.16898823 1999.78849537 C-636.1703382 1996.88143419 -636.17170087 1993.97437301 -636.17308033 1991.06731184 C-636.18939028 1956.63491944 -636.19576987 1922.20252773 -636.2005282 1887.77013213 C-636.20291065 1870.62725288 -636.20661397 1853.48437403 -636.2105653 1836.34149508 C-636.22323036 1781.36371431 -636.23401426 1726.38593356 -636.23740576 1671.40815136 C-636.237568 1668.78003375 -636.23773356 1666.15191613 -636.23790014 1663.52379852 C-636.23823394 1658.2529909 -636.23856442 1652.98218328 -636.2388947 1647.71137565 C-636.2392816 1641.54042668 -636.23967121 1635.36947771 -636.24006577 1629.19852874 C-636.24017818 1627.4323472 -636.2402896 1625.66616567 -636.24040002 1623.89998413 C-636.24394974 1567.17187607 -636.25902898 1510.44378066 -636.28233776 1453.71567743 C-636.29907788 1412.95763604 -636.31455381 1372.19959703 -636.31907272 1331.44155216 C-636.31916621 1330.60345594 -636.3192597 1329.76535972 -636.31935601 1328.90186664 C-636.32137501 1310.50406115 -636.3225311 1292.1062557 -636.3228846 1273.7084501 C-636.32302077 1267.12540239 -636.32322977 1260.54235468 -636.32347785 1253.95930697 C-636.32353941 1252.32158225 -636.32359773 1250.68385754 -636.3236528 1249.04613282 C-636.32457284 1222.94331282 -636.33454377 1196.84050603 -636.34911029 1170.73769037 C-636.36372273 1144.44738514 -636.36877031 1118.15709612 -636.36069075 1091.86678755 C-636.35957536 1088.23396407 -636.3585647 1084.60114056 -636.35761642 1080.96831703 C-636.35742646 1080.25618269 -636.35723649 1079.54404835 -636.35704076 1078.81033418 C-636.35430695 1067.53365631 -636.36164962 1056.25700843 -636.37318979 1044.98033708 C-636.3843275 1033.89216358 -636.38451407 1022.80402427 -636.37381961 1011.71584785 C-636.36840859 1005.78428067 -636.36777845 999.85281779 -636.38032833 993.9212591 C-636.39165051 988.52505721 -636.38916117 983.12904466 -636.37566125 977.73284939 C-636.37322583 975.79293248 -636.37581628 973.85300106 -636.38405773 971.91310013 C-636.43596518 958.83508311 -635.68178957 947.04758026 -629.4375 935.25 C-629.09162842 934.57864014 -628.74575684 933.90728027 -628.3894043 933.21557617 C-624.76630426 926.31906514 -620.61815991 919.77365977 -616.41113281 913.22363281 C-614.89116956 910.82850733 -613.40728076 908.41367066 -611.9296875 905.9921875 C-589.03651176 868.488199 -562.47598913 832.88509814 -532.54370117 800.68725586 C-531.39644962 799.43331699 -530.26336027 798.16639079 -529.13793945 796.89282227 C-523.07300912 790.04514056 -516.70188982 783.54838327 -510.22485352 777.09448242 C-508.4332405 775.3082533 -506.64706945 773.51670653 -504.86132812 771.72460938 C-499.07528039 765.93520002 -493.24764247 760.29536783 -487 755 C-485.39231627 753.54554483 -483.78760285 752.08779105 -482.1875 750.625 C-476.93824117 745.89428498 -471.50441004 741.42916306 -466 737 C-464.87864698 736.08625558 -463.75756489 735.17217861 -462.63671875 734.2578125 C-430.12912765 707.85288982 -394.8435934 685.42067835 -357.41113281 666.70996094 C-354.98098605 665.49175682 -352.5597497 664.26177488 -350.14355469 663.01660156 C-349.50711029 662.69128448 -348.87066589 662.36596741 -348.2149353 662.03079224 C-346.43376741 661.12031982 -344.65504255 660.20507271 -342.87646484 659.28955078 C-340 658 -340 658 -337 658 C-337 657.34 -337 656.68 -337 656 C-337.69609375 655.74992188 -338.3921875 655.49984375 -339.109375 655.2421875 C-360.01348667 646.25906924 -380.01981905 628.47053991 -396.59375 613.1953125 C-398.61731032 611.34914221 -400.67146289 609.55735617 -402.74609375 607.76953125 C-407.20235207 603.8792624 -411.39228068 599.75536305 -415.5625 595.5625 C-416.27857422 594.85029297 -416.99464844 594.13808594 -417.73242188 593.40429688 C-422.36108988 588.76720545 -426.75519665 583.98985251 -431 579 C-431.54906006 578.35764404 -432.09812012 577.71528809 -432.66381836 577.0534668 C-441.38992625 566.77485331 -449.46530451 556.17976854 -457 545 C-457.47034668 544.30406738 -457.94069336 543.60813477 -458.42529297 542.89111328 C-468.89504225 527.30394426 -477.90187354 510.93173494 -486 494 C-486.35416992 493.26652344 -486.70833984 492.53304687 -487.07324219 491.77734375 C-527.8410068 406.71556482 -531.23869058 305.10734713 -500.75390625 216.3515625 C-485.2199226 172.51247312 -462.08142756 129.55134535 -430.16015625 95.3359375 C-428.38319477 93.41437698 -426.68143805 91.46036038 -424.98046875 89.47265625 C-420.47895864 84.31436352 -415.66121227 79.47515628 -410.82226562 74.63696289 C-409.26139673 73.07391266 -407.70872112 71.50302635 -406.15625 69.93164062 C-399.76291844 63.50248109 -393.12274623 57.62713972 -386 52 C-384.76825278 50.98750624 -383.53874244 49.97227873 -382.3125 48.953125 C-308.11743378 -11.9090691 -208.31695755 -40.73516464 0 0 Z M-197 72 C-197.94987793 72.17692383 -198.89975586 72.35384766 -199.87841797 72.53613281 C-227.36945541 77.78503988 -253.29254825 86.83378154 -278 100 C-278.6300293 100.3290332 -279.26005859 100.65806641 -279.90917969 100.99707031 C-296.98222458 109.95327987 -312.60732656 121.20437455 -327 134 C-327.60078369 134.5161084 -328.20156738 135.0322168 -328.82055664 135.56396484 C-340.84829878 145.92345277 -352.45116428 157.30137472 -362 170 C-362.49886719 170.64420898 -362.99773437 171.28841797 -363.51171875 171.95214844 C-400.16169641 219.30238181 -420.20202442 276.71488168 -420.25 336.625 C-420.25067474 337.38978668 -420.25134949 338.15457336 -420.25204468 338.9425354 C-420.16671251 400.34580907 -398.82028911 459.44360779 -360 507 C-359.56574707 507.5357666 -359.13149414 508.0715332 -358.68408203 508.62353516 C-347.20661407 522.69890196 -334.44326695 535.9551488 -320 547 C-318.9996875 547.7940625 -317.999375 548.588125 -316.96875 549.40625 C-278.16353316 580.0870899 -231.06909417 599.15519084 -182 605 C-180.83392212 605.14356934 -180.83392212 605.14356934 -179.64428711 605.29003906 C-170.39425221 606.28579858 -161.10535188 606.24364889 -151.8125 606.25 C-150.92361084 606.25067474 -150.03472168 606.25134949 -149.11889648 606.25204468 C-134.86913249 606.23490369 -121.05249414 605.51091539 -107 603 C-106.08105957 602.84966309 -105.16211914 602.69932617 -104.21533203 602.54443359 C-54.12808968 594.24110869 -7.60571808 570.13968018 29.72265625 536.0546875 C31.6737616 534.29434202 33.66013544 532.60815677 35.6875 530.9375 C38.7802918 528.30396267 41.38106732 525.4006889 44.00390625 522.3046875 C46.32263137 519.6274902 48.755694 517.07485341 51.1875 514.5 C91.05295215 471.4731376 116.90106823 408.81218728 117.203125 350.0234375 C117.21018463 349.10352524 117.21724426 348.18361298 117.22451782 347.23582458 C117.49678701 318.9782141 117.49678701 318.9782141 114 291 C113.70996094 289.48744629 113.70996094 289.48744629 113.4140625 287.94433594 C103.73614657 238.97228913 81.90642427 194.32211968 48.234375 157.45703125 C46.76874924 155.84535537 45.32006451 154.21807418 43.890625 152.57421875 C33.78917718 141.01654031 22.26830024 131.17477797 10 122 C9.37174316 121.52594727 8.74348633 121.05189453 8.09619141 120.56347656 C-25.31055769 95.53975708 -64.1382824 79.82416804 -105 72 C-105.91056152 71.82210937 -106.82112305 71.64421875 -107.75927734 71.4609375 C-136.07416508 66.21917316 -168.74957534 66.61350929 -197 72 Z M-394 808 C-394.90105469 808.72058594 -395.80210937 809.44117188 -396.73046875 810.18359375 C-413.61521824 823.85220048 -429.49987434 838.41759767 -444.875 853.75 C-445.42129059 854.29361176 -445.96758118 854.83722351 -446.53042603 855.39730835 C-452.5736791 861.41809116 -458.47323754 867.49530217 -464 874 C-465.02104935 875.15705973 -466.04446629 876.31203476 -467.0703125 877.46484375 C-474.62588561 886.02807148 -481.65201787 894.89822877 -488.50830078 904.02783203 C-489.87348603 905.83273652 -491.25619389 907.62134077 -492.65234375 909.40234375 C-498.65628667 917.06396067 -504.22910279 924.96095824 -509.66943359 933.02978516 C-510.91406755 934.87275691 -512.16866711 936.70849806 -513.42578125 938.54296875 C-515.03401108 940.89205547 -516.57942332 943.27114707 -518.10423267 945.67495006 C-520.06668153 948.71213838 -522.19374839 951.47049922 -524.50990403 954.24502951 C-538.65104362 972.41039294 -536.96179562 992.20572382 -536.7117267 1014.14043267 C-536.66321688 1019.77587624 -536.6969195 1025.41096133 -536.71981156 1031.04648501 C-536.74872144 1040.90561643 -536.72604522 1050.76356012 -536.66887665 1060.62255287 C-536.60777246 1071.18975344 -536.57688375 1081.75650002 -536.58350754 1092.32386017 C-536.58390923 1092.99362519 -536.58431092 1093.66339021 -536.58472478 1094.35345114 C-536.5869143 1097.76915074 -536.58960157 1101.18484976 -536.59246449 1104.60054886 C-536.61212161 1129.26449266 -536.56430524 1153.92793015 -536.48022079 1178.59171867 C-536.39719633 1203.00311736 -536.34334766 1227.41429912 -536.3282814 1251.82583809 C-536.32779964 1252.58505578 -536.32731787 1253.34427346 -536.32682151 1254.12649775 C-536.32243647 1261.06117917 -536.31840883 1267.99586076 -536.31480986 1274.93054264 C-536.3058604 1292.16638104 -536.29243117 1309.4022144 -536.27595711 1326.63804722 C-536.27521066 1327.42277194 -536.27446422 1328.20749665 -536.27369515 1329.01600091 C-536.23702832 1367.15210627 -536.14873672 1405.28806857 -536.05615234 1443.42407227 C-536.02406796 1456.65165092 -535.99221236 1469.87923006 -535.96130371 1483.10681152 C-535.95938642 1483.92723102 -535.95746913 1484.74765052 -535.95549375 1485.59293121 C-535.86661212 1523.76017592 -535.81449759 1561.92744525 -535.77181658 1600.09476635 C-535.7690437 1602.5738109 -535.766255 1605.05285543 -535.76346307 1607.53189996 C-535.7449855 1623.96119782 -535.72714052 1640.39049633 -535.70971904 1656.81979535 C-535.67505155 1689.50766441 -535.63666815 1722.1955288 -535.59573038 1754.88339061 C-535.59378102 1756.43993407 -535.59183425 1757.99647754 -535.5898901 1759.55302101 C-535.49104584 1838.67090507 -535.33497541 1917.78865433 -535 2070 C-448.53292166 2070.15420483 -362.06582672 2070.29730708 -275.59864807 2070.38108826 C-274.31957278 2070.38233077 -273.04049749 2070.38357328 -271.72266235 2070.38485345 C-244.60398739 2070.41113166 -217.48531106 2070.43560751 -190.36663257 2070.4579171 C-176.7442414 2070.46912575 -163.12185055 2070.48069051 -149.49945997 2070.49259197 C-147.44455989 2070.49438521 -145.3896598 2070.49616828 -143.33475972 2070.49795092 C-111.68813607 2070.52549429 -80.04154356 2070.56068017 -48.3949585 2070.61798096 C-47.71440829 2070.61921305 -47.03385808 2070.62044514 -46.33268514 2070.62171456 C-35.36003798 2070.64162617 -24.38739202 2070.66217855 -13.41474621 2070.68281596 C32.4631545 2070.76908919 78.3409847 2070.82667987 124.21897422 2070.84523491 C130.59751533 2070.84782843 136.97605623 2070.85075916 143.35459709 2070.85389519 C144.61002577 2070.85450199 145.86545444 2070.8551088 147.15892641 2070.855734 C167.3945155 2070.866383 187.62992719 2070.90816181 207.86544384 2070.96148831 C228.19288614 2071.01439611 248.520152 2071.03473133 268.84766079 2071.0215124 C280.93517426 2071.01465014 293.0220436 2071.03306699 305.10944115 2071.08717789 C313.17553541 2071.12083036 321.24120601 2071.12204199 329.30732908 2071.09648632 C333.90894838 2071.08284745 338.50934642 2071.08368171 343.11083669 2071.12394864 C347.29477699 2071.16028478 351.47653979 2071.15542184 355.66044534 2071.11725978 C357.16691705 2071.1108151 358.67354716 2071.1195666 360.17981596 2071.1451172 C368.34785221 2071.4642914 368.34785221 2071.4642914 375.40652352 2068.02144378 C377.19426778 2065.75660151 378.62136193 2063.52925989 380 2061 C380.67361572 2060.07082764 381.34723145 2059.14165527 382.04125977 2058.18432617 C382.58580811 2057.39517822 383.13035645 2056.60603027 383.69140625 2055.79296875 C384.31853516 2054.88740234 384.94566406 2053.98183594 385.59179688 2053.04882812 C386.24212891 2052.10458984 386.89246094 2051.16035156 387.5625 2050.1875 C388.98019545 2048.13913373 390.39816909 2046.09095999 391.81640625 2044.04296875 C392.52039551 2043.02509277 393.22438477 2042.0072168 393.94970703 2040.95849609 C396.95082172 2036.62799982 399.97438984 2032.31340046 403 2028 C408.01542545 2020.84401017 413.0120943 2013.6751956 418 2006.5 C419.34371107 2004.56898333 420.68746084 2002.63799358 422.03125 2000.70703125 C424.64015452 1996.95768828 427.24359221 1993.20463145 429.84375 1989.44921875 C433.19899555 1984.61115545 436.5837661 1979.79517948 440 1975 C440.74636719 1973.94941406 441.49273438 1972.89882812 442.26171875 1971.81640625 C451.04142942 1960.11606161 462.64525226 1953.88195404 476.85895729 1951.40898514 C482.59454452 1950.66217265 488.32394239 1950.69101655 494.1003418 1950.68115234 C495.50341008 1950.67172041 496.90647286 1950.66143831 498.3095293 1950.6503849 C502.03408284 1950.62335087 505.7585975 1950.60780479 509.48322296 1950.59480286 C512.99069801 1950.58077078 516.4980695 1950.55615878 520.00549316 1950.5324707 C530.23276938 1950.46946233 540.46014344 1950.42323524 550.6875 1950.375 C573.560625 1950.25125 596.43375 1950.1275 620 1950 C620 1892.91 620 1835.82 620 1777 C606.8 1776.67 593.6 1776.34 580 1776 C564.58724833 1771.79652227 552.83837347 1766.23059137 544.24609375 1752.33203125 C537.93435355 1740.51977765 535.7211385 1727.09606876 538.8359375 1713.9375 C541.45099423 1705.37275043 545.26075826 1698.8147547 551 1692 C551.44263184 1691.47083984 551.88526367 1690.94167969 552.34130859 1690.39648438 C555.33355423 1686.82924207 558.3751582 1683.30716837 561.43554688 1679.79833984 C563.97414661 1676.88021786 566.48593293 1673.93925228 569 1671 C569.99986589 1669.83321839 570.99986604 1668.66655183 572 1667.5 C572.495 1666.9225 572.99 1666.345 573.5 1665.75 C672.5000004 1550.24999953 672.5000004 1550.24999953 891.50195312 1294.74780273 C892.49555008 1293.58855231 893.48904078 1292.4292108 894.48242188 1291.26977539 C897.07949595 1288.23886026 899.67874713 1285.20984931 902.28125 1282.18359375 C902.82007813 1281.55646484 903.35890625 1280.92933594 903.9140625 1280.28320312 C904.93941633 1279.08990341 905.96541414 1277.89715662 906.9921875 1276.70507812 C907.91166256 1275.63447388 908.82480934 1274.55839065 909.73046875 1273.47607422 C910.92102375 1272.09182508 912.19293926 1270.77874731 913.46875 1269.47265625 C913.9740625 1268.65667969 914.479375 1267.84070312 915 1267 C913.92628901 1262.93838738 912.26176924 1259.25613361 910.41796875 1255.4921875 C909.90524414 1254.43845947 909.39251953 1253.38473145 908.86425781 1252.29907227 C908.31092773 1251.16912842 907.75759766 1250.03918457 907.1875 1248.875 C905.99572486 1246.4246138 904.8078076 1243.97237213 903.62109375 1241.51953125 C903.31761017 1240.8925383 903.01412659 1240.26554535 902.70144653 1239.61955261 C899.64901995 1233.29893339 896.69222642 1226.93508969 893.75 1220.5625 C888.72286896 1209.68131073 883.62787571 1198.83403938 878.5 1188 C873.46066351 1177.35118616 868.44660578 1166.69228465 863.5 1156 C858.61096168 1145.43512856 853.66332401 1134.89921166 848.6875 1124.375 C848.32950317 1123.61775635 847.97150635 1122.8605127 847.60266113 1122.08032227 C846.15148098 1119.01093842 844.7001694 1115.94161677 843.24868774 1112.87237549 C839.40868164 1104.75159923 835.57644605 1096.62717409 831.75 1088.5 C831.41687805 1087.7925061 831.0837561 1087.08501221 830.74053955 1086.3560791 C826.31769434 1076.95958375 821.92593852 1067.54926444 817.5625 1058.125 C812.65148287 1047.51904032 807.68300252 1036.94136647 802.6875 1026.375 C802.32959381 1025.61793762 801.97168762 1024.86087524 801.60293579 1024.08087158 C800.15166149 1021.01129328 798.7002474 1017.94178113 797.24867249 1014.87234497 C793.40867357 1006.75157775 789.57649101 998.62714045 785.75 990.5 C785.41654572 989.79184143 785.08309143 989.08368286 784.73953247 988.35406494 C780.33657318 979.00046738 775.96677068 969.63219351 771.625 960.25 C766.64263074 949.4913631 761.60731698 938.75824058 756.54144287 928.03869629 C755.7265555 926.3138952 754.9124597 924.5887199 754.09918213 922.86315918 C752.96047171 920.44798307 751.81859354 918.03433112 750.67578125 915.62109375 C750.16261604 914.53093208 750.16261604 914.53093208 749.63908386 913.41874695 C748.23591034 910.463875 746.81814917 907.72722376 745 905 C744.15998947 905.84889297 743.31997894 906.69778595 742.45451355 907.57240295 C734.50714718 915.60112668 726.54903417 923.61906132 718.58048534 931.62676334 C714.48486912 935.74318578 710.3930291 939.86321615 706.30981445 943.99194336 C702.3634985 947.98196531 698.40727288 951.96191652 694.44420815 955.93530083 C692.93974729 957.44710872 691.43878997 958.9624121 689.9415493 960.48137093 C676.27953526 974.33348341 663.63074777 985.10095908 643.21484375 986.0234375 C621.32266387 985.86383473 608.35338032 972.53745092 593.8359375 957.93359375 C592.91785309 957.01409439 591.99976868 956.09459503 591.05386353 955.14723206 C588.64824963 952.73785433 586.24565737 950.32548657 583.84375 947.91241455 C581.37817237 945.43648855 578.90965474 942.9634973 576.44140625 940.49023438 C571.62477411 935.66297356 566.8113378 930.83253757 562 926 C557.63656704 929.60759061 553.65653862 933.30152877 549.890625 937.546875 C545.87234987 942.01469323 541.745866 946.34163724 537.484375 950.578125 C536.93285767 951.12641968 536.38134033 951.67471436 535.81311035 952.23962402 C534.12732125 953.91169657 532.43912419 955.581297 530.75 957.25 C522.41788872 965.35384332 522.41788872 965.35384332 514.578125 973.921875 C508.5571319 980.99128137 501.70290605 987.34802795 495.10644531 993.87304688 C486.24598135 1002.62377386 486.24598135 1002.62377386 477.91015625 1011.8671875 C472.46414614 1017.94800861 466.48192061 1023.56292806 460.67919922 1029.30029297 C452.87616484 1036.91837321 452.87616484 1036.91837321 445.53125 1044.96875 C439.53186387 1052.02641293 432.68648983 1058.36426638 426.10644531 1064.87304688 C418.06795589 1072.7145128 418.06795589 1072.7145128 410.5 1081 C404.51510679 1088.04987421 397.67552848 1094.37510901 391.10644531 1100.87304688 C383.06795589 1108.7145128 383.06795589 1108.7145128 375.5 1117 C369.51510679 1124.04987421 362.67552848 1130.37510901 356.10644531 1136.87304688 C347.24598135 1145.62377386 347.24598135 1145.62377386 338.91015625 1154.8671875 C333.46414614 1160.94800861 327.48192061 1166.56292806 321.67919922 1172.30029297 C313.87616484 1179.91837321 313.87616484 1179.91837321 306.53125 1187.96875 C300.53186387 1195.02641293 293.68648983 1201.36426638 287.10644531 1207.87304688 C279.06795589 1215.7145128 279.06795589 1215.7145128 271.5 1224 C265.51510679 1231.04987421 258.67552848 1237.37510901 252.10644531 1243.87304688 C244.06795589 1251.7145128 244.06795589 1251.7145128 236.5 1260 C230.51510679 1267.04987421 223.67552848 1273.37510901 217.10644531 1279.87304688 C208.24598135 1288.62377386 208.24598135 1288.62377386 199.91015625 1297.8671875 C194.46414614 1303.94800861 188.48192061 1309.56292806 182.67919922 1315.30029297 C174.87616484 1322.91837321 174.87616484 1322.91837321 167.53125 1330.96875 C161.53186387 1338.02641293 154.68648983 1344.36426638 148.10644531 1350.87304688 C140.06795589 1358.7145128 140.06795589 1358.7145128 132.5 1367 C126.51510679 1374.04987421 119.67552848 1380.37510901 113.10644531 1386.87304688 C103.21529254 1396.61970136 103.21529254 1396.61970136 94 1407 C95.27629715 1409.83132439 96.54191846 1411.75844561 98.85047913 1413.82923889 C99.42851256 1414.35594649 100.006546 1414.88265409 100.6020956 1415.42532253 C101.54747991 1416.2745181 101.54747991 1416.2745181 102.51196289 1417.14086914 C110.71010024 1424.65082058 118.57679734 1432.45972062 126.41631889 1440.3411541 C128.87459731 1442.81244674 131.33620592 1445.28038164 133.79859924 1447.74757385 C139.01442976 1452.97469825 144.22625851 1458.20580103 149.4375 1463.4375 C155.50887572 1469.53258713 161.58194034 1475.62597253 167.65922737 1481.71516609 C170.07188882 1484.13425768 172.48149609 1486.55636252 174.89097595 1488.97862244 C176.37825879 1490.46953953 177.86568318 1491.96031543 179.35327148 1493.45092773 C180.01159973 1494.1144223 180.66992798 1494.77791687 181.34820557 1495.46151733 C184.47056307 1498.5842249 187.63868926 1501.59514505 190.98158264 1504.48158264 C195.15714325 1508.08937346 199.05533472 1511.92849838 202.94140625 1515.84375 C203.69050262 1516.59430664 204.439599 1517.34486328 205.21139526 1518.11816406 C206.82425243 1519.73480248 208.43595424 1521.35259425 210.04660034 1522.97143555 C212.60100992 1525.53870378 215.15861337 1528.10275198 217.71704102 1530.66601562 C224.06799685 1537.03028353 230.41348317 1543.39999585 236.75915527 1549.76953125 C242.13123735 1555.1613943 247.50539616 1560.55117133 252.8822937 1565.93823242 C255.39243095 1568.45481523 257.89951836 1570.974409 260.40649414 1573.49414062 C261.95704455 1575.04832621 263.50773702 1576.60237008 265.05859375 1578.15625 C265.74662079 1578.84944336 266.43464783 1579.54263672 267.14352417 1580.25683594 C270.3383329 1583.45198813 273.57354482 1586.54112599 276.9942627 1589.4942627 C281.19908996 1593.1250858 285.1207534 1596.9941129 289.03320312 1600.93554688 C289.79205307 1601.69585709 290.55090302 1602.4561673 291.33274841 1603.23951721 C292.96688624 1604.87743678 294.59986868 1606.51650974 296.23179626 1608.15663147 C298.8198119 1610.75750347 301.41101958 1613.35515761 304.00305176 1615.95202637 C310.43748254 1622.39977064 316.86644479 1628.85295868 323.29559326 1635.30596924 C328.73813615 1640.7682915 334.18275468 1646.22852895 339.63011169 1651.68605042 C342.17348706 1654.23587233 344.71381332 1656.78870501 347.25402832 1659.3416748 C348.82480175 1660.91608334 350.3957172 1662.49035019 351.96679688 1664.06445312 C352.66417465 1664.76699722 353.36155243 1665.46954132 354.08006287 1666.19337463 C358.00774484 1670.1214735 362.03864483 1673.8665596 366.25203705 1677.48719025 C380.47687321 1689.7983613 392.78227265 1704.27966674 394.203125 1723.7890625 C394.45415155 1738.97616869 389.64356694 1751.87638311 379.1953125 1763 C369.28461996 1772.02895833 356.74109711 1776.16092942 343.56274319 1776.13142776 C342.28560415 1776.13450672 342.28560415 1776.13450672 340.98266432 1776.13764787 C338.11631235 1776.14332332 335.25000834 1776.14185994 332.38365173 1776.14044189 C330.31311362 1776.14302522 328.24257601 1776.14603829 326.17203909 1776.1494453 C320.47150909 1776.15752245 314.77099167 1776.15930527 309.07045662 1776.16004276 C302.92642321 1776.16189209 296.78239634 1776.16943885 290.6383667 1776.17617798 C276.49721509 1776.19047598 262.35606763 1776.19628869 248.21491052 1776.20086992 C241.22568466 1776.20320621 234.23645963 1776.20680892 227.24723441 1776.2105653 C203.31879749 1776.22340104 179.39036103 1776.23411988 155.46192074 1776.2375679 C153.95988628 1776.23778953 152.45785183 1776.23801132 150.95581738 1776.23823325 C149.45016806 1776.23845389 147.94451874 1776.23867438 146.43886942 1776.2388947 C143.41831203 1776.23933725 140.39775465 1776.23978437 137.37719727 1776.24023438 C136.62827493 1776.24034377 135.8793526 1776.24045316 135.10773565 1776.24056586 C110.82860433 1776.2441958 86.54950289 1776.26011333 62.27038302 1776.28342474 C36.5966826 1776.30803003 10.92299926 1776.32174108 -14.75071329 1776.32293582 C-17.57001428 1776.32310727 -20.38931527 1776.3233227 -23.20861626 1776.32357025 C-23.90279937 1776.32362602 -24.59698248 1776.32368179 -25.31220145 1776.32373925 C-36.47593648 1776.32488913 -47.63964082 1776.33590584 -58.8033655 1776.35045731 C-70.02857131 1776.36483568 -81.25373841 1776.36779959 -92.47895444 1776.36001733 C-98.55833933 1776.35610973 -104.63762112 1776.35704592 -110.71699333 1776.37107468 C-116.2854046 1776.38380676 -121.85363524 1776.38262198 -127.42204624 1776.37048396 C-129.43353881 1776.36852578 -131.44504414 1776.37161099 -133.45651878 1776.38032833 C-151.51647874 1776.45362375 -167.11974097 1774.403184 -180.86328125 1761.44921875 C-192.79959278 1747.76719438 -194.45649599 1732.05931167 -194.38476086 1714.5799818 C-194.38869439 1712.83722846 -194.39393936 1711.09447768 -194.40036663 1709.35173175 C-194.41421106 1704.57347342 -194.40951718 1699.79538802 -194.40173779 1695.01712266 C-194.39658254 1689.81485489 -194.40883832 1684.61262299 -194.41886932 1679.41036636 C-194.43405268 1670.29657771 -194.43816109 1661.18283646 -194.43499184 1652.06903648 C-194.4303296 1638.51719513 -194.44282271 1624.96540743 -194.45882157 1611.41357665 C-194.48524976 1588.61639574 -194.49780086 1565.8192325 -194.50238609 1543.02203941 C-194.50696847 1520.45009252 -194.5177491 1497.87816241 -194.53681374 1475.30622292 C-194.53740331 1474.60485689 -194.53799288 1473.90349086 -194.53860032 1473.18087132 C-194.54398854 1466.77483908 -194.54945299 1460.36880692 -194.55500887 1453.96277482 C-194.56881836 1438.03910963 -194.58167212 1422.11544374 -194.59387684 1406.19177723 C-194.59471159 1405.10416371 -194.59471159 1405.10416371 -194.59556321 1403.9945782 C-194.62254102 1368.73605371 -194.63850644 1333.47752539 -194.65356445 1298.21899414 C-194.65879512 1285.98567704 -194.66407451 1273.75235996 -194.66955566 1261.51904297 C-194.66989556 1260.76031672 -194.67023546 1260.00159047 -194.67058566 1259.21987251 C-194.68645778 1223.93912216 -194.71016022 1188.65837832 -194.73587859 1153.37763393 C-194.73754839 1151.08677731 -194.73921483 1148.79592069 -194.74088058 1146.50506407 C-194.7519251 1131.32325491 -194.7631045 1116.14144586 -194.7743742 1100.95963687 C-194.79679633 1070.75240255 -194.81842606 1040.54516767 -194.83951129 1010.33793239 C-194.84051539 1008.89943165 -194.84152006 1007.46093092 -194.84252527 1006.02243018 C-194.90254189 920.12782564 -194.94625582 834.23321271 -195 719 C-263.36350438 718.35734182 -342.57807586 766.7606351 -394 808 Z " fill="#0098E0" transform="translate(806,166)"/>
<path d="M0 0 C-3.89795697 5.47820979 -8.1659911 10.43982405 -12.74584961 15.34887695 C-16.67634275 19.58505287 -20.33736859 23.99938284 -23.9296875 28.52734375 C-28.08830137 33.49414107 -30.71216488 36.47282726 -37.28515625 37.51953125 C-38.52362305 37.73254883 -39.76208984 37.94556641 -41.03808594 38.16503906 C-41.69321167 38.26981567 -42.3483374 38.37459229 -43.02331543 38.48254395 C-46.53187213 39.05025593 -50.02546655 39.69742075 -53.51953125 40.34765625 C-54.23297699 40.48005707 -54.94642273 40.61245789 -55.68148804 40.74887085 C-118.62835564 52.69537666 -180.38643142 86.21090044 -230 126 C-230.90105469 126.72058594 -231.80210937 127.44117188 -232.73046875 128.18359375 C-249.42889673 141.70136878 -265.1664628 156.08559535 -280.375 171.25 C-280.89737244 171.7696936 -281.41974487 172.28938721 -281.95794678 172.8248291 C-287.8592701 178.70319549 -293.59825922 184.65342872 -299 191 C-300.02113485 192.15698428 -301.04454684 193.31196309 -302.0703125 194.46484375 C-309.62588561 203.02807148 -316.65201787 211.89822877 -323.50830078 221.02783203 C-324.87348603 222.83273652 -326.25619389 224.62134077 -327.65234375 226.40234375 C-333.65628667 234.06396067 -339.22910279 241.96095824 -344.66943359 250.02978516 C-345.91406755 251.87275691 -347.16866711 253.70849806 -348.42578125 255.54296875 C-350.03382449 257.89176873 -351.57900082 260.27058329 -353.10356611 262.67413521 C-355.06790064 265.71428068 -357.19754702 268.4750947 -359.51590306 271.2523632 C-373.64096551 289.39578415 -371.8958591 309.04938447 -371.55442371 330.94819047 C-371.4829379 336.55588334 -371.494475 342.16353763 -371.4952665 347.77160168 C-371.48556349 357.58347273 -371.42445216 367.39395045 -371.32904625 377.20534706 C-371.22709742 387.72248235 -371.15581127 398.2391838 -371.12281418 408.75676537 C-371.12071092 409.42341549 -371.11860765 410.09006562 -371.11644066 410.77691727 C-371.1058895 414.17683928 -371.09590886 417.57676271 -371.08618198 420.97668717 C-371.06604576 427.94388678 -371.04161944 434.91107091 -371.01566803 441.87825108 C-371.01305694 442.57964948 -371.01044585 443.28104789 -371.00775563 444.0037008 C-370.94657545 460.13137443 -370.84021283 476.25871243 -370.7328948 492.38613255 C-370.56629528 517.46360785 -370.44105062 542.5407986 -370.37336922 567.6187439 C-370.3713252 568.37570653 -370.36928119 569.13266916 -370.36717523 569.91257005 C-370.34243147 579.14527491 -370.31965802 588.37798424 -370.29749128 597.6106956 C-370.26356992 611.69143492 -370.22564803 625.77216435 -370.18756777 639.85289295 C-370.18329495 641.4334142 -370.17903222 643.01393548 -370.17477956 644.59445678 C-370.07458599 681.81425724 -369.94010398 719.03390371 -369.79043449 756.25353588 C-369.78051502 758.72182752 -369.77063609 761.19011933 -369.76076274 763.65841116 C-369.60848442 801.66726057 -369.43538113 839.67594118 -369.22387695 877.68450928 C-369.21933546 878.50190772 -369.21479396 879.31930617 -369.21011484 880.16147426 C-369.15973217 889.22955612 -369.10907506 898.29763644 -369.05836255 907.36571646 C-369.05380836 908.1803826 -369.04925418 908.99504874 -369.04456198 909.83440173 C-369.02158139 913.94516336 -368.99857715 918.05592486 -368.97553058 922.16668612 C-368.76738812 959.33864072 -368.58234422 996.51040802 -368.49335575 1033.68286133 C-368.49147243 1034.46503721 -368.4895891 1035.24721309 -368.48764871 1036.05309128 C-368.4483684 1052.45646761 -368.41534469 1068.85984887 -368.39065953 1085.26325364 C-368.37905924 1092.9457482 -368.36588839 1100.62823967 -368.35176277 1108.31072998 C-368.35039588 1109.0670412 -368.34902899 1109.82335242 -368.34762068 1110.60258217 C-368.30286716 1134.90985883 -368.15333575 1159.21510835 -367.94582539 1183.52150048 C-367.73693474 1208.01745919 -367.62245192 1232.51181859 -367.63941762 1257.00872233 C-367.64172645 1260.40315686 -367.64289663 1263.79759089 -367.64336777 1267.19202614 C-367.64349724 1267.85734144 -367.64362671 1268.52265675 -367.64376011 1269.20813313 C-367.64285237 1280.32414591 -367.51917793 1291.4360231 -367.36152297 1302.55075686 C-367.23244814 1312.25422911 -367.21756064 1321.9536907 -367.29257166 1331.65771641 C-367.33201581 1337.17798136 -367.32444343 1342.68610445 -367.17616945 1348.20479035 C-366.68047757 1367.67981866 -366.48040354 1383.90549636 -380.17618379 1398.94233361 C-386.90208226 1405.90459231 -394.19546564 1412.27469421 -402 1418 C-402.33 1418 -402.66 1418 -403 1418 C-403.07698139 1383.33594369 -403.15078741 1348.67188078 -403.22216797 1314.0078125 C-403.22356514 1313.32944939 -403.2249623 1312.65108628 -403.22640181 1311.95216672 C-403.37607015 1239.24215334 -403.50518127 1166.53213782 -403.59280396 1093.82202148 C-403.59475626 1092.20630611 -403.59670858 1090.59059075 -403.59866092 1088.97487538 C-403.63958154 1055.0580258 -403.67761523 1021.14117348 -403.71231549 987.22431698 C-403.72975056 970.18588762 -403.74774016 953.14745889 -403.76625418 936.10903067 C-403.76904367 933.53890312 -403.77181733 930.96877555 -403.77459032 928.39864798 C-403.81741273 888.83837244 -403.87210318 849.27815723 -403.96130371 809.71795654 C-403.96322029 808.86785537 -403.96513688 808.0177542 -403.96711154 807.14189238 C-403.99808341 793.43639011 -404.03005445 779.73089016 -404.06215817 766.0253905 C-404.15465029 726.53277242 -404.23971211 687.04020094 -404.27595711 647.54748535 C-404.2767066 646.73475363 -404.27745609 645.92202191 -404.27822829 645.08466196 C-404.29455183 627.24001267 -404.30707847 609.39536281 -404.31601376 591.55070835 C-404.31967628 584.36980385 -404.32388499 577.18889969 -404.3282814 570.00799561 C-404.32874938 569.222094 -404.32921736 568.43619239 -404.32969952 567.62647558 C-404.34503068 542.33591713 -404.40476026 517.04570437 -404.48795092 491.75528531 C-404.57159996 466.26339537 -404.6113505 440.77184033 -404.59073583 415.27980978 C-404.58789301 411.75088195 -404.58554954 408.22195396 -404.58350754 404.69302559 C-404.58308921 404.00130213 -404.58267088 403.30957868 -404.58223988 402.5968939 C-404.57725054 392.34324952 -404.61130041 382.09024576 -404.66887665 371.83677483 C-404.73278948 360.41354138 -404.75041369 348.99148284 -404.70564539 337.56813471 C-404.68456972 331.82116124 -404.68514537 326.07654938 -404.74836455 320.32983232 C-405.19224094 277.50002622 -405.19224094 277.50002622 -390.80401851 259.36459529 C-388.25837231 256.02792053 -386.15849305 252.46986288 -384.02849477 248.85872418 C-370.6232428 226.14721856 -355.04847057 204.12624756 -338 184 C-337.10765282 182.93394525 -336.21574952 181.86751885 -335.32421875 180.80078125 C-330.41059542 174.93910962 -325.42058885 169.16391336 -320.265625 163.51171875 C-319.03296954 162.14517141 -317.80659174 160.77236261 -316.61499023 159.36987305 C-311.44953436 153.32030382 -305.86177776 147.70985207 -300.23022461 142.09985352 C-298.56573723 140.4407268 -296.90666553 138.77631949 -295.24804688 137.11132812 C-289.67130608 131.53073135 -284.02913831 126.09486928 -278 121 C-276.86988121 120.01571338 -275.7409458 119.03006616 -274.61328125 118.04296875 C-239.8385946 87.8726504 -200.37200369 63.01885462 -158.98828125 42.96972656 C-156.92152378 41.9617255 -154.8673076 40.93055416 -152.8125 39.8984375 C-112.98423354 20.16034081 -69.71910222 9.34860382 -26 2.5625 C-25.15535187 2.43058258 -24.31070374 2.29866516 -23.44046021 2.16275024 C-21.02396711 1.78903956 -18.60620786 1.42547648 -16.1875 1.06640625 C-15.12226357 0.90292694 -15.12226357 0.90292694 -14.0355072 0.73614502 C-9.31354606 0.05498269 -4.7712075 -0.09116319 0 0 Z " fill="#008CCD" transform="translate(642,849)"/>
<path d="M0 0 C10.56 0 21.12 0 32 0 C32 14.04435218 27.26144962 25.49340807 17.6875 35.8125 C7.41088566 45.37959308 -6.01661134 50.24146292 -19.93605042 50.03036499 C-20.6098743 50.02189722 -21.28369819 50.01342944 -21.97794098 50.00470507 C-23.44685687 49.98573201 -24.91574335 49.9643635 -26.38459396 49.9408741 C-30.47480168 49.87576654 -34.5652452 49.82888554 -38.65565491 49.77841187 C-39.9620265 49.76148997 -39.9620265 49.76148997 -41.29478943 49.74422622 C-52.46787817 49.60256234 -63.64157323 49.55332083 -74.81538498 49.50232005 C-85.68682919 49.45243147 -96.55585246 49.37251273 -107.42602539 49.19433594 C-116.07155162 49.05278842 -124.71467483 48.97893382 -133.36140102 48.98395598 C-137.93211967 48.98417478 -142.49698148 48.95130861 -147.06637764 48.83649826 C-165.13561051 47.58800629 -165.13561051 47.58800629 -181.78158379 52.87407875 C-186.11823023 57.24765462 -188.78751856 62.12732895 -191.07268333 67.80422497 C-192.2853071 70.67557312 -193.96130655 73.05227895 -195.83984375 75.52734375 C-196.35724121 76.26509033 -196.87463867 77.00283691 -197.40771484 77.76293945 C-197.91254395 78.48054443 -198.41737305 79.19814941 -198.9375 79.9375 C-200.1159013 81.61717636 -201.29428624 83.29686419 -202.47265625 84.9765625 C-203.0567627 85.80833008 -203.64086914 86.64009766 -204.24267578 87.49707031 C-207.12334045 91.59995641 -209.99953311 95.70597003 -212.875 99.8125 C-213.44581299 100.62750977 -214.01662598 101.44251953 -214.60473633 102.28222656 C-218.43668 107.75688882 -222.25594599 113.24023641 -226.06835938 118.72851562 C-228.10009977 121.65167488 -230.13587016 124.5719975 -232.171875 127.4921875 C-234.57637059 130.94310615 -236.96215794 134.4053845 -239.328125 137.8828125 C-249.0097854 152.02730377 -259.49286647 164.86843538 -277 169 C-281.78620674 169.78878676 -286.36890577 170.12481121 -291.21729845 170.1241985 C-291.9137281 170.12547658 -292.61015775 170.12675467 -293.32769134 170.12807148 C-295.65932817 170.131132 -297.99089713 170.12707401 -300.3225317 170.12304783 C-302.01906412 170.12378766 -303.71559639 170.12496644 -305.41212824 170.12654433 C-310.08998607 170.12961665 -314.7678222 170.12643547 -319.44567842 170.12226619 C-324.52871667 170.11883522 -329.61175269 170.12120218 -334.69479138 170.12284368 C-343.60856213 170.12491908 -352.52232621 170.12327081 -361.43609619 170.11920547 C-374.69060432 170.11317721 -387.94510824 170.11286904 -401.1996175 170.11374746 C-423.49443756 170.11506228 -445.78925497 170.11172374 -468.08407402 170.10573006 C-490.16415865 170.09980828 -512.24424205 170.0959551 -534.32432747 170.09487724 C-535.00996541 170.09484283 -535.69560335 170.09480842 -536.40201819 170.09477296 C-542.66423398 170.09445977 -548.92644976 170.09417208 -555.18866554 170.09391499 C-570.75606454 170.09327558 -586.3234635 170.09231625 -601.89086246 170.09113979 C-602.59977959 170.09108648 -603.30869671 170.09103316 -604.03909617 170.09097823 C-638.52663423 170.08835649 -673.01417149 170.08204885 -707.50170898 170.07543945 C-719.4701538 170.0731478 -731.43859862 170.07087244 -743.40704346 170.06866455 C-744.14932422 170.0685276 -744.89160499 170.06839065 -745.65637912 170.06824955 C-780.16103029 170.06190586 -814.66568161 170.05818001 -849.17033322 170.05512976 C-851.41031097 170.05493169 -853.65028871 170.0547325 -855.89026646 170.05453308 C-870.73467504 170.0532133 -885.57908363 170.05193865 -900.42349222 170.05069422 C-929.96035974 170.04821769 -959.49722723 170.04547601 -989.03409472 170.04255217 C-990.44072781 170.04241293 -991.8473609 170.04227388 -993.25399399 170.04213501 C-1079.87044642 170.03358178 -1166.48689796 170.01925029 -1274 170 C-1274 159.44 -1274 148.88 -1274 138 C-1268.91548683 137.99761165 -1263.83097366 137.99522329 -1258.59238434 137.99276257 C-1171.0498355 137.95130435 -1083.50728873 137.90666272 -991.76013184 137.84101868 C-990.35435786 137.84001305 -988.94858389 137.83900743 -987.54280991 137.83800181 C-958.03585924 137.81688069 -928.52890905 137.79514352 -899.02195937 137.77269462 C-884.19985014 137.76141862 -869.37774083 137.750261 -854.55563143 137.73921531 C-852.31975895 137.73754842 -850.08388647 137.73587814 -847.84801399 137.73420772 C-813.41487249 137.70851256 -778.98173158 137.6853579 -744.54858398 137.66955566 C-743.43789682 137.66904587 -743.43789682 137.66904587 -742.30477153 137.66852577 C-730.36623963 137.66306152 -718.42770763 137.65781029 -706.48917563 137.65258733 C-672.10647584 137.63754209 -637.72378008 137.62092408 -603.34108734 137.59387684 C-602.63417317 137.59332151 -601.92725901 137.59276618 -601.1989232 137.59219403 C-585.68118746 137.5799755 -570.16345252 137.56694669 -554.6457181 137.55315043 C-548.40209238 137.54761373 -542.15846656 137.54219369 -535.9148407 137.53681374 C-535.23149913 137.53622211 -534.54815756 137.53563048 -533.84410868 137.53502092 C-511.81949664 137.51601028 -489.79489304 137.50650026 -467.77027364 137.50196405 C-444.97092146 137.49722364 -422.17159489 137.48194017 -399.37225729 137.45433434 C-386.22095638 137.43874232 -373.06971239 137.43155176 -359.91840274 137.43623071 C-351.14189108 137.43853632 -342.36543337 137.4300532 -333.5889387 137.41267589 C-328.58273191 137.40307615 -323.57664431 137.39828258 -318.57043248 137.40660437 C-314.01848264 137.41407895 -309.46676788 137.40784666 -304.9148466 137.39055933 C-303.27606146 137.38675911 -301.63725511 137.38800421 -299.99847984 137.39484399 C-287.31699304 137.75279895 -287.31699304 137.75279895 -276.13037109 132.4921875 C-275.72383301 131.95851563 -275.31729492 131.42484375 -274.8984375 130.875 C-274.41987305 130.25882813 -273.94130859 129.64265625 -273.44824219 129.0078125 C-272.7313623 128.01394531 -272.7313623 128.01394531 -272 127 C-271.24831543 125.97519531 -271.24831543 125.97519531 -270.48144531 124.9296875 C-268.83398062 122.6386338 -267.22610622 120.32366981 -265.625 118 C-265.02413574 117.13479736 -264.42327148 116.26959473 -263.80419922 115.37817383 C-262.52286485 113.53265017 -261.24311712 111.68602404 -259.96484375 109.83837891 C-257.35657289 106.07051645 -254.73711002 102.31049532 -252.11816406 98.55004883 C-248.74254786 93.70204539 -245.37154719 88.85083369 -242 84 C-232.02529827 69.64883823 -222.03027958 55.31237356 -212 41 C-209.41622665 37.31280804 -206.83298717 33.62524273 -204.25 29.9375 C-203.35450439 28.65999878 -203.35450439 28.65999878 -202.44091797 27.35668945 C-201.61164795 26.17272583 -201.61164795 26.17272583 -200.765625 24.96484375 C-200.27868164 24.2699585 -199.79173828 23.57507324 -199.29003906 22.85913086 C-198.17490834 21.25206794 -197.08502644 19.62753967 -196 18 C-193.56215475 17.69948499 -191.37595492 17.59720193 -188.93513489 17.62145996 C-188.19924202 17.61692983 -187.46334916 17.6123997 -186.70515651 17.6077323 C-184.22619352 17.59605593 -181.74776473 17.60577622 -179.26879883 17.61523438 C-177.49662933 17.61113153 -175.72446253 17.60567237 -173.95230103 17.59895325 C-170.12883576 17.58720238 -166.30551495 17.58475319 -162.48203468 17.58930969 C-156.43518801 17.59610273 -150.38853227 17.58027874 -144.34172058 17.56091309 C-131.49865741 17.52299389 -118.65561056 17.51025535 -105.8125 17.5 C-91.9656987 17.48893237 -78.11898489 17.47356438 -64.27224368 17.42928743 C-58.26287898 17.410931 -52.25373135 17.40703933 -46.24434531 17.41422272 C-42.50079375 17.41574597 -38.75735043 17.40495125 -35.01382828 17.39084435 C-33.2800468 17.38684565 -31.54624469 17.38795996 -29.81247139 17.39461708 C-27.44131158 17.40302061 -25.07089844 17.39298345 -22.69978333 17.37854004 C-21.67602206 17.38888094 -21.67602206 17.38888094 -20.63157874 17.39943075 C-14.5093851 17.3270299 -10.09589565 15.61955573 -5.25 11.875 C-2.21794357 8.33208276 -2.21794357 8.33208276 0 0 Z " fill="#0075AC" transform="translate(1494,2167)"/>
<path d="M0 0 C2 0 2 0 4.17578125 2.109375 C4.61615723 2.56763672 5.0565332 3.02589844 5.51025391 3.49804688 C8.24535591 6.2555604 11.23774556 8.72682543 14.1875 11.25 C16.05629341 12.85182292 17.91953059 14.45452355 19.75323064 16.09650562 C21.98696794 18.05460076 21.98696794 18.05460076 24.54209124 19.74155685 C28.73379603 22.86051099 31.54432368 25.30289398 32.92694141 30.45227034 C33.2850258 34.7693858 33.32263887 38.98806145 33.25282478 43.31481361 C33.26265644 44.98600737 33.27686952 46.65718006 33.29505271 48.32830381 C33.33235962 52.92716713 33.30735419 57.52391002 33.27227282 62.12271317 C33.24512159 67.12303066 33.27592603 72.12304456 33.29937446 77.12333429 C33.33243792 85.88898602 33.32823853 94.65400948 33.29972076 103.4196682 C33.25743086 116.4541239 33.27223994 129.48807736 33.2984712 142.52255278 C33.34081482 164.44965209 33.33557697 186.37653901 33.30182266 208.30363846 C33.26842832 230.02204994 33.25222088 251.7403446 33.26028061 273.4587822 C33.26076133 274.82247268 33.26123972 276.18616317 33.26171577 277.54985365 C33.26365329 283.0298668 33.26569814 288.50987991 33.26788597 293.98989297 C33.27394337 309.30883062 33.27658942 324.62776793 33.27662468 339.94670677 C33.27662848 340.99309915 33.27662848 340.99309915 33.27663235 342.06063078 C33.27647212 364.29015092 33.26136705 386.51963492 33.23581123 408.74913979 C33.23498386 409.47017438 33.23415649 410.19120897 33.23330404 410.93409309 C33.2198167 422.64343052 33.2055094 434.35276695 33.19114557 446.06210333 C33.13422353 492.50859009 33.12229647 538.95485613 33.15283203 585.40136719 C33.15475089 588.33671906 33.15666492 591.27207093 33.15857746 594.20742281 C33.15928686 595.29605418 33.15928686 595.29605418 33.16001059 596.4066781 C33.16523616 604.44403441 33.1703013 612.4813908 33.17517281 620.51874733 C33.17561244 621.23949694 33.17605207 621.96024655 33.17650502 622.70283706 C33.18994821 644.91085628 33.19339097 667.11885743 33.18565178 689.3268795 C33.18540887 690.02393599 33.18516595 690.72099248 33.18491568 691.4391719 C33.17945974 706.73982787 33.17133386 722.04048167 33.16082437 737.34113498 C33.15706757 742.81563452 33.1534147 748.29013413 33.1497733 753.76463375 C33.14840479 755.80642407 33.14700171 757.84821436 33.14559826 759.89000465 C33.1354858 774.82859789 33.13084425 789.76716676 33.14046717 804.70576143 C33.14090053 805.37917551 33.14133388 806.0525896 33.14178038 806.74641016 C33.14399807 810.13705684 33.14631603 813.52770345 33.14867719 816.91835003 C33.16572287 841.41119799 33.15735719 865.90384718 33.10314299 890.39665557 C33.07523922 903.35726464 33.06938839 916.31744242 33.0950124 929.27805869 C33.10989051 937.92590317 33.09585832 946.57338315 33.05789617 955.22115645 C33.0370472 960.1547217 33.02900415 965.08741648 33.05585326 970.02097245 C33.07999245 974.50601256 33.06758115 978.98938311 33.02553307 983.47427751 C33.01686247 985.08974397 33.02169226 986.70535122 33.04140192 988.3207207 C33.17751479 1000.3526322 33.17751479 1000.3526322 30.25718985 1004.43822782 C28.25579018 1006.20630015 26.2617592 1007.59148736 24 1009 C22.97007149 1009.93808798 21.96631857 1010.90605622 20.99633789 1011.90600586 C19.57120849 1013.34919869 18.14588232 1014.79220283 16.71714783 1016.23182678 C15.1630779 1017.79791251 13.61238314 1019.36727146 12.0625 1020.9375 C9.99372962 1023.03278903 7.92170002 1025.12477613 5.84765625 1027.21484375 C4.94023682 1028.13386475 4.03281738 1029.05288574 3.09790039 1029.99975586 C1 1032 1 1032 0 1032 C0 691.44 0 350.88 0 0 Z " fill="#008BCD" transform="translate(680,841)"/>
<path d="M0 0 C0.17803618 6.42250954 0.30029994 12.84437919 0.38452148 19.26879883 C0.4196428 21.45230894 0.46735234 23.63565538 0.52807617 25.81860352 C0.61336119 28.96411559 0.65277175 32.10744577 0.68359375 35.25390625 C0.71972275 36.2239711 0.75585175 37.19403595 0.79307556 38.1934967 C0.79691858 44.88368377 0.79691858 44.88368377 -1.49728394 48.09738159 C-3.255644 49.85342623 -5.09038641 51.41276084 -7 53 C-8.04380093 54.16736308 -9.06769087 55.35311514 -10.0625 56.5625 C-16.24444635 63.72417445 -23.17211815 70.22440568 -29.89355469 76.87304688 C-37.93204411 84.7145128 -37.93204411 84.7145128 -45.5 93 C-51.48489321 100.04987421 -58.32447152 106.37510901 -64.89355469 112.87304688 C-73.75401865 121.62377386 -73.75401865 121.62377386 -82.08984375 130.8671875 C-87.53585386 136.94800861 -93.51807939 142.56292806 -99.32080078 148.30029297 C-107.12383516 155.91837321 -107.12383516 155.91837321 -114.46875 163.96875 C-120.46813613 171.02641293 -127.31351017 177.36426638 -133.89355469 183.87304688 C-141.93204411 191.7145128 -141.93204411 191.7145128 -149.5 200 C-155.48489321 207.04987421 -162.32447152 213.37510901 -168.89355469 219.87304688 C-176.93204411 227.7145128 -176.93204411 227.7145128 -184.5 236 C-190.48489321 243.04987421 -197.32447152 249.37510901 -203.89355469 255.87304688 C-212.75401865 264.62377386 -212.75401865 264.62377386 -221.08984375 273.8671875 C-226.53585386 279.94800861 -232.51807939 285.56292806 -238.32080078 291.30029297 C-246.12383516 298.91837321 -246.12383516 298.91837321 -253.46875 306.96875 C-259.46813613 314.02641293 -266.31351017 320.36426638 -272.89355469 326.87304688 C-280.93204411 334.7145128 -280.93204411 334.7145128 -288.5 343 C-294.48489321 350.04987421 -301.32447152 356.37510901 -307.89355469 362.87304688 C-315.93204411 370.7145128 -315.93204411 370.7145128 -323.5 379 C-329.48489321 386.04987421 -336.32447152 392.37510901 -342.89355469 398.87304688 C-351.75401865 407.62377386 -351.75401865 407.62377386 -360.08984375 416.8671875 C-365.53585386 422.94800861 -371.51807939 428.56292806 -377.32080078 434.30029297 C-385.12383516 441.91837321 -385.12383516 441.91837321 -392.46875 449.96875 C-398.46813613 457.02641293 -405.31351017 463.36426638 -411.89355469 469.87304688 C-419.93204411 477.7145128 -419.93204411 477.7145128 -427.5 486 C-433.48489321 493.04987421 -440.32447152 499.37510901 -446.89355469 505.87304688 C-453.48730724 512.40171824 -460.03175905 518.88323158 -466 526 C-467 527 -467 527 -468.82862854 527.12025452 C-469.62582809 527.11803391 -470.42302765 527.11581329 -471.24438477 527.11352539 C-472.14524307 527.11344986 -473.04610138 527.11337433 -473.97425842 527.11329651 C-474.95341721 527.10813522 -475.93257599 527.10297394 -476.94140625 527.09765625 C-477.93881332 527.0962413 -478.9362204 527.09482635 -479.96385193 527.09336853 C-483.16343124 527.08775114 -486.36294169 527.07519571 -489.5625 527.0625 C-491.72591045 527.05748724 -493.88932199 527.05292395 -496.05273438 527.04882812 C-501.36851325 527.03777607 -506.68425171 527.02102104 -512 527 C-511.60167969 526.53601807 -511.20335937 526.07203613 -510.79296875 525.59399414 C-507.56868173 521.83928241 -507.56868173 521.83928241 -504.375 518.05859375 C-497.78497442 510.28910337 -490.34279512 503.28493092 -483.10644531 496.12695312 C-475.06795589 488.2854872 -475.06795589 488.2854872 -467.5 480 C-461.51510679 472.95012579 -454.67552848 466.62489099 -448.10644531 460.12695312 C-440.06795589 452.2854872 -440.06795589 452.2854872 -432.5 444 C-426.51510679 436.95012579 -419.67552848 430.62489099 -413.10644531 424.12695312 C-405.06795589 416.2854872 -405.06795589 416.2854872 -397.5 408 C-391.51510679 400.95012579 -384.67552848 394.62489099 -378.10644531 388.12695312 C-370.06795589 380.2854872 -370.06795589 380.2854872 -362.5 372 C-356.51510679 364.95012579 -349.67552848 358.62489099 -343.10644531 352.12695312 C-334.24598135 343.37622614 -334.24598135 343.37622614 -325.91015625 334.1328125 C-320.46414614 328.05199139 -314.48192061 322.43707194 -308.67919922 316.69970703 C-300.87616484 309.08162679 -300.87616484 309.08162679 -293.53125 301.03125 C-287.53186387 293.97358707 -280.68648983 287.63573362 -274.10644531 281.12695312 C-266.06795589 273.2854872 -266.06795589 273.2854872 -258.5 265 C-252.51510679 257.95012579 -245.67552848 251.62489099 -239.10644531 245.12695312 C-231.06795589 237.2854872 -231.06795589 237.2854872 -223.5 229 C-217.51510679 221.95012579 -210.67552848 215.62489099 -204.10644531 209.12695312 C-196.06795589 201.2854872 -196.06795589 201.2854872 -188.5 193 C-182.51510679 185.95012579 -175.67552848 179.62489099 -169.10644531 173.12695312 C-160.24598135 164.37622614 -160.24598135 164.37622614 -151.91015625 155.1328125 C-146.46414614 149.05199139 -140.48192061 143.43707194 -134.67919922 137.69970703 C-126.87616484 130.08162679 -126.87616484 130.08162679 -119.53125 122.03125 C-113.53186387 114.97358707 -106.68648983 108.63573362 -100.10644531 102.12695312 C-92.08221076 94.30229218 -92.08221076 94.30229218 -84.53125 86.03125 C-78.36385087 78.76639388 -71.30171929 72.25163928 -64.53369141 65.55419922 C-55.44275406 56.58855165 -55.44275406 56.58855165 -46.89257812 47.11523438 C-41.45526856 41.03824133 -35.47573875 35.43095971 -29.67919922 29.69970703 C-20.79046248 20.9231279 -20.79046248 20.9231279 -12.42285156 11.65429688 C-10.26838742 9.14938112 -7.96490592 6.83270621 -5.625 4.5 C-4.77164062 3.6440625 -3.91828125 2.788125 -3.0390625 1.90625 C-1 0 -1 0 0 0 Z " fill="#0074AB" transform="translate(1367,1047)"/>
<path d="M0 0 C6.06453405 12.31048579 4.49855933 25.51676115 0.62841797 38.15820312 C-2.45638252 47.19928118 -9.3163332 54.21873441 -15.50146484 61.28369141 C-17.49864052 63.57110506 -19.47048521 65.87968967 -21.44287109 68.18847656 C-22.94769259 69.94942743 -24.45574995 71.70755332 -25.96484375 73.46484375 C-28.97870991 76.97472388 -31.98960805 80.48714002 -35 84 C-35.99998659 85.16667816 -36.9999866 86.33334482 -38 87.5 C-38.7425 88.36625 -38.7425 88.36625 -39.5 89.25 C-89 147 -138.5 204.75 -261.50024414 348.25024414 C-262.49948396 349.41605104 -263.49867023 350.58190386 -264.49780273 351.74780273 C-267.00899461 354.67800398 -269.52113393 357.60738291 -272.03515625 360.53515625 C-276.87576555 366.17421656 -281.70493633 371.82213425 -286.5 377.5 C-291.7965589 383.77168949 -297.13604423 390.00591071 -302.48388672 396.23388672 C-304.49196964 398.57309314 -306.49838695 400.91372234 -308.50390625 403.25512695 C-309.49610888 404.4123189 -310.48958618 405.56841921 -311.484375 406.72338867 C-314.10187477 409.76554515 -316.69114963 412.82691728 -319.24609375 415.921875 C-319.78041016 416.56253906 -320.31472656 417.20320313 -320.86523438 417.86328125 C-321.88621723 419.08846067 -322.89971953 420.31992715 -323.90429688 421.55859375 C-329.12203202 427.78504264 -335.13644317 428.59775528 -342.75390625 430.19921875 C-343.69177475 430.39852493 -344.62964325 430.59783112 -345.59593201 430.80317688 C-347.57313399 431.22151995 -349.55085463 431.63741825 -351.52905273 432.05102539 C-354.55732473 432.68641413 -357.58232663 433.33600512 -360.60742188 433.98632812 C-362.5310665 434.39149718 -364.45488898 434.79582296 -366.37890625 435.19921875 C-367.73526939 435.49284554 -367.73526939 435.49284554 -369.11903381 435.79240417 C-370.38571144 436.05311455 -370.38571144 436.05311455 -371.67797852 436.3190918 C-372.41790543 436.47516403 -373.15783234 436.63123627 -373.92018127 436.79203796 C-376.19632468 437.0196306 -377.83029091 436.68050654 -380 436 C-379.20078125 435.07960938 -378.4015625 434.15921875 -377.578125 433.2109375 C-370.51840995 425.07595186 -363.48622751 416.91829097 -356.48388672 408.73388672 C-354.49104529 406.40529839 -352.49635582 404.07829738 -350.50146484 401.75146484 C-349.50287817 400.58660944 -348.50450472 399.42157121 -347.50634766 398.25634766 C-344.97287723 395.29911478 -342.43642376 392.34452942 -339.89453125 389.39453125 C-335.30393447 384.06164678 -330.74238602 378.71814055 -326.3125 373.25 C-322.76254679 368.87492253 -319.04436179 364.69450808 -315.25 360.53125 C-312.92137947 357.9115519 -310.70437053 355.2248469 -308.5 352.5 C-304.88850866 348.03579543 -301.11339306 343.76997886 -297.24609375 339.52734375 C-294.93812402 336.93037607 -292.74444137 334.26595987 -290.5625 331.5625 C-286.70291397 326.79003797 -282.62800009 322.26890891 -278.47265625 317.75390625 C-275.25290481 314.16792716 -272.24094824 310.43298508 -269.21484375 306.68359375 C-267.04367173 304.05291443 -264.79758643 301.52057576 -262.5 299 C-259.38541332 295.58260628 -256.4081338 292.0947765 -253.5 288.5 C-249.88967558 284.03723787 -246.11572071 279.77280467 -242.25 275.53125 C-239.92137947 272.9115519 -237.70437053 270.2248469 -235.5 267.5 C-232.5918662 263.9052235 -229.61458668 260.41739372 -226.5 257 C-223.47717579 253.68010514 -220.57487839 250.30235888 -217.75 246.8125 C-212.53481485 240.37288007 -207.08668248 234.14544597 -201.64648438 227.89648438 C-199.06362591 224.92144811 -196.49943086 221.9305594 -193.9375 218.9375 C-193.44660889 218.36410889 -192.95571777 217.79071777 -192.44995117 217.19995117 C-191.46114797 216.04469482 -190.47245951 214.88934024 -189.48388672 213.73388672 C-186.99104476 210.82105954 -184.49537234 207.91065939 -182 205 C-180.9999866 203.83334482 -179.99998659 202.66667816 -179 201.5 C-53 54.5 -53 54.5 -51.49780273 52.74853516 C-50.50367658 51.58799213 -49.51098631 50.42621749 -48.51977539 49.26318359 C-45.94065304 46.24084749 -43.33593055 43.24746797 -40.68359375 40.2890625 C-39.86858398 39.36867188 -39.86858398 39.36867188 -39.03710938 38.4296875 C-38.0072618 37.26780818 -36.96880366 36.11347555 -35.91992188 34.96875 C-31.91589142 30.42096232 -29.15962328 25.55427841 -28.8828125 19.390625 C-29.04550092 17.95266933 -29.21222857 16.51516541 -29.3828125 15.078125 C-29 13 -29 13 -27.15625 11.06640625 C-22.75124101 8.18243378 -18.1284711 5.93795123 -13.375 3.6875 C-12.42109375 3.22021484 -11.4671875 2.75292969 -10.484375 2.27148438 C-9.11152344 1.61696289 -9.11152344 1.61696289 -7.7109375 0.94921875 C-6.87868652 0.55049561 -6.04643555 0.15177246 -5.18896484 -0.2590332 C-3 -1 -3 -1 0 0 Z " fill="#0075AC" transform="translate(1827,1421)"/>
<path d="M0 0 C162.03 0 324.06 0 491 0 C490.67 10.56 490.34 21.12 490 32 C328.3 32 166.6 32 0 32 C0 21.44 0 10.88 0 0 Z " fill="#0074AB" transform="translate(661,1911)"/>
<path d="M0 0 C-3.89795697 5.47820979 -8.1659911 10.43982405 -12.74584961 15.34887695 C-16.67634275 19.58505287 -20.33736859 23.99938284 -23.9296875 28.52734375 C-28.08830137 33.49414107 -30.71216488 36.47282726 -37.28515625 37.51953125 C-38.52362305 37.73254883 -39.76208984 37.94556641 -41.03808594 38.16503906 C-41.69321167 38.26981567 -42.3483374 38.37459229 -43.02331543 38.48254395 C-46.53187213 39.05025593 -50.02546655 39.69742075 -53.51953125 40.34765625 C-54.23297699 40.48005707 -54.94642273 40.61245789 -55.68148804 40.74887085 C-118.62835564 52.69537666 -180.38643142 86.21090044 -230 126 C-230.90105469 126.72058594 -231.80210937 127.44117188 -232.73046875 128.18359375 C-249.42889673 141.70136878 -265.1664628 156.08559535 -280.375 171.25 C-280.89737244 171.7696936 -281.41974487 172.28938721 -281.95794678 172.8248291 C-287.8592701 178.70319549 -293.59825922 184.65342872 -299 191 C-300.02113485 192.15698428 -301.04454684 193.31196309 -302.0703125 194.46484375 C-309.62588561 203.02807148 -316.65201787 211.89822877 -323.50830078 221.02783203 C-324.87348603 222.83273652 -326.25619389 224.62134077 -327.65234375 226.40234375 C-333.65628667 234.06396067 -339.22910279 241.96095824 -344.66943359 250.02978516 C-345.91406755 251.87275691 -347.16866711 253.70849806 -348.42578125 255.54296875 C-352.3207045 261.27093776 -356.05224382 267.04484468 -359.5625 273.01953125 C-360.18278076 274.06810303 -360.80306152 275.1166748 -361.44213867 276.19702148 C-362.67295058 278.2883253 -363.88970338 280.38797806 -365.09106445 282.49633789 C-365.93737427 283.9328772 -365.93737427 283.9328772 -366.80078125 285.3984375 C-367.54581909 286.69273682 -367.54581909 286.69273682 -368.3059082 288.01318359 C-370 290 -370 290 -372.31835938 290.875 C-375.53108515 291.02475561 -378.00630256 290.46353815 -381.10546875 289.6015625 C-382.25337891 289.28703125 -383.40128906 288.9725 -384.58398438 288.6484375 C-385.77314453 288.31070312 -386.96230469 287.97296875 -388.1875 287.625 C-389.38826172 287.295 -390.58902344 286.965 -391.82617188 286.625 C-400.63122235 284.18438883 -400.63122235 284.18438883 -403 283 C-390.04730712 247.70562521 -362.1342125 212.49118537 -338 184 C-337.10765282 182.93394525 -336.21574952 181.86751885 -335.32421875 180.80078125 C-330.41059542 174.93910962 -325.42058885 169.16391336 -320.265625 163.51171875 C-319.03296954 162.14517141 -317.80659174 160.77236261 -316.61499023 159.36987305 C-311.44953436 153.32030382 -305.86177776 147.70985207 -300.23022461 142.09985352 C-298.56573723 140.4407268 -296.90666553 138.77631949 -295.24804688 137.11132812 C-289.67130608 131.53073135 -284.02913831 126.09486928 -278 121 C-276.86988121 120.01571338 -275.7409458 119.03006616 -274.61328125 118.04296875 C-239.8385946 87.8726504 -200.37200369 63.01885462 -158.98828125 42.96972656 C-156.92152378 41.9617255 -154.8673076 40.93055416 -152.8125 39.8984375 C-112.98423354 20.16034081 -69.71910222 9.34860382 -26 2.5625 C-25.15535187 2.43058258 -24.31070374 2.29866516 -23.44046021 2.16275024 C-21.02396711 1.78903956 -18.60620786 1.42547648 -16.1875 1.06640625 C-15.12226357 0.90292694 -15.12226357 0.90292694 -14.0355072 0.73614502 C-9.31354606 0.05498269 -4.7712075 -0.09116319 0 0 Z " fill="#005F8D" transform="translate(642,849)"/>
<path d="M0 0 C3.85543799 1.58470987 6.27694154 4.0418292 9.19238281 6.98120117 C9.69705582 7.48718842 10.20172882 7.99317566 10.72169495 8.51449585 C12.38681876 10.18610213 14.04484788 11.86457259 15.703125 13.54296875 C16.86600366 14.7121239 18.02940303 15.88076134 19.19329834 17.04890442 C22.2588443 20.12775119 25.31878415 23.21210461 28.37713623 26.2980957 C33.25623405 31.22028414 38.14191984 36.1359079 43.03108978 41.04808998 C44.72836499 42.75548655 46.42212307 44.46631343 48.11553955 46.17753601 C49.17358423 47.24242045 50.23174496 48.30718961 51.29003906 49.37182617 C52.65760345 50.7517701 52.65760345 50.7517701 54.05279541 52.15959167 C56.24537295 54.31995387 58.52657752 56.34645661 60.85656738 58.3575592 C65.09204883 62.03098945 69.05649224 65.9294563 73.00488281 69.90722656 C73.76040436 70.66420837 74.5159259 71.42119019 75.29434204 72.20111084 C76.92030419 73.83085377 78.545111 75.46175003 80.16886139 77.09369659 C82.73898212 79.67666132 85.31228433 82.25641861 87.88641357 84.83538818 C93.34376149 90.30411807 98.79715854 95.77677722 104.25 101.25 C110.58478422 107.60839556 116.92118311 113.96516439 123.26180267 120.31774139 C125.79648125 122.85890035 128.32812955 125.40305213 130.85968018 127.94732666 C132.41053745 129.50181573 133.96153489 131.05616499 135.51269531 132.61035156 C136.56630753 133.67171326 136.56630753 133.67171326 137.64120483 134.7545166 C138.29144623 135.40482849 138.94168762 136.05514038 139.6116333 136.72515869 C140.1727544 137.2885004 140.7338755 137.85184212 141.31200027 138.43225479 C143.01947218 140.08511932 143.01947218 140.08511932 145.21177292 141.57967758 C145.80188786 142.04838398 146.39200279 142.51709038 147 143 C147 143.66 147 144.32 147 145 C147.59011494 145.26493665 148.18022987 145.52987329 148.78822708 145.80283833 C151.07399909 147.04005333 152.56118687 148.31717434 154.3883667 150.15458679 C155.03860809 150.80352402 155.68884949 151.45246124 156.35879517 152.12106323 C157.06120331 152.83223297 157.76361145 153.54340271 158.48730469 154.27612305 C159.23581696 155.02594955 159.98432922 155.77577606 160.75552368 156.54832458 C163.23226457 159.03156277 165.70195529 161.52169749 168.171875 164.01171875 C169.89526232 165.74137844 171.61916711 167.47052267 173.34356689 169.19917297 C177.88869133 173.75761281 182.42822652 178.32157507 186.96618652 182.887146 C194.21410183 190.1781261 201.46862211 197.46251781 208.72653961 204.74353981 C211.25474983 207.28192406 213.7794878 209.82372394 216.30389404 212.3658905 C217.867516 213.93634701 219.4312512 215.50669079 220.99511719 217.0769043 C221.68942841 217.77795288 222.38373962 218.47900146 223.09909058 219.20129395 C226.98279465 223.09389624 230.97994731 226.77797579 235.14256668 230.36994839 C237.79762528 232.69998226 240.27807098 235.15854711 242.7734375 237.65991211 C243.29154495 238.17787354 243.8096524 238.69583496 244.34346008 239.22949219 C246.023027 240.90974518 247.69904282 242.59349093 249.375 244.27734375 C250.55161924 245.45583183 251.72846225 246.63409653 252.90551758 247.81214905 C255.97860807 250.88902808 259.04868155 253.9688999 262.11810303 257.04943848 C265.26048674 260.20211573 268.40576071 263.35190669 271.55078125 266.50195312 C277.70332807 272.66517254 283.85268562 278.83156165 290 285 C289.34 285.33 288.68 285.66 288 286 C285.61061836 285.193101 283.33373939 284.31643945 281.01171875 283.34375 C280.29509567 283.05203918 279.5784726 282.76032837 278.84013367 282.45977783 C274.75458179 280.79153332 270.68851793 279.07868242 266.62548828 277.35644531 C258.53017629 273.94641412 250.58912845 270.7564136 242.10546875 268.453125 C211.48628394 259.59760383 191.75988503 235.90636688 170.73738098 213.18536377 C170.27489771 212.68742435 169.81241444 212.18948494 169.33591652 211.67645645 C168.10326246 210.346775 166.8759953 209.01210518 165.6492157 207.67700195 C163.54939428 205.55515659 161.43872877 203.60972611 159.18367004 201.6628418 C154.95249598 198.00554425 150.99708036 194.12431028 147.05859375 190.15625 C146.30949738 189.40569336 145.560401 188.65513672 144.78860474 187.88183594 C143.17574757 186.26519752 141.56404576 184.64740575 139.95339966 183.02856445 C137.39899008 180.46129622 134.84138663 177.89724802 132.28295898 175.33398438 C125.93200315 168.96971647 119.58651683 162.60000415 113.24084473 156.23046875 C107.86876265 150.8386057 102.49460384 145.44882867 97.1177063 140.06176758 C94.60756905 137.54518477 92.10048164 135.025591 89.59350586 132.50585938 C88.04295545 130.95167379 86.49226298 129.39762992 84.94140625 127.84375 C83.90936569 126.80395996 83.90936569 126.80395996 82.85647583 125.74316406 C79.02765739 121.91393401 75.08403981 118.29872373 70.98623657 114.76039124 C67.56776243 111.73061522 64.36704336 108.48918589 61.15039062 105.24804688 C60.41104782 104.5072438 59.67170502 103.76644073 58.90995789 103.00318909 C57.31838136 101.40783183 55.72796019 99.81132125 54.13859558 98.21376038 C51.61779209 95.68009588 49.09379285 93.14965365 46.56896973 90.61999512 C40.30148881 84.3392036 34.03947843 78.052967 27.77728271 71.76690674 C22.47566147 66.44550288 17.17196238 61.12618628 11.86552429 55.80958557 C9.38862513 53.32624189 6.91477659 50.83988703 4.44104004 48.35339355 C2.91071265 46.81943092 1.38024315 45.28561004 -0.15039062 43.75195312 C-1.16840508 42.72618919 -1.16840508 42.72618919 -2.20698547 41.67970276 C-6.08424266 37.80202333 -10.06846953 34.11370344 -14.23299408 30.54558563 C-16.60697481 28.46908409 -18.80500956 26.26358389 -21 24 C-19.55439289 20.6707371 -17.74603328 18.52258603 -15.15625 15.99609375 C-14.02896484 14.88524414 -14.02896484 14.88524414 -12.87890625 13.75195312 C-12.09386719 12.98818359 -11.30882812 12.22441406 -10.5 11.4375 C-8.94568662 9.91764184 -7.39350712 8.39559753 -5.84375 6.87109375 C-4.81024414 5.86453735 -4.81024414 5.86453735 -3.75585938 4.83764648 C-1.81983589 2.9179867 -1.81983589 2.9179867 0 0 Z " fill="#008ED1" transform="translate(814,1587)"/>
<path d="M0 0 C4.5922666 0.36730383 9.18895166 0.59954712 13.79003906 0.82519531 C15.43351903 0.90725604 17.07699237 0.98944969 18.72045898 1.07177734 C19.93262589 1.13247406 19.93262589 1.13247406 21.16928101 1.19439697 C25.03964748 1.39064969 28.90922235 1.59755821 32.77832031 1.81738281 C34.08212646 1.88957031 35.38593262 1.96175781 36.72924805 2.03613281 C39.62483597 2.27370259 42.33053581 2.66749103 45.15722656 3.31738281 C42.10512467 5.78543492 39.04022114 7.42194441 35.46972656 9.04003906 C33.73638062 9.83390015 33.73638062 9.83390015 31.96801758 10.64379883 C31.34919708 10.92538849 30.73037659 11.20697815 30.09280396 11.49710083 C4.56539308 23.1396931 -20.78964651 35.42756304 -44.9921875 49.64404297 C-48.11947103 51.47980876 -51.25852652 53.2945861 -54.39746094 55.11035156 C-74.54662436 66.83673951 -94.06149301 79.49903141 -112.84277344 93.31738281 C-113.83792969 94.04957031 -114.83308594 94.78175781 -115.85839844 95.53613281 C-131.29258487 107.01076357 -146.11526252 119.1045283 -160.34057617 132.05053711 C-161.90767246 133.47023553 -163.48167172 134.88239204 -165.06567383 136.28320312 C-171.4196076 141.91593758 -177.4772413 147.79703725 -183.46655273 153.81079102 C-185.03549704 155.38512436 -186.60975902 156.95399871 -188.18457031 158.52246094 C-193.61542537 163.94963102 -198.85463895 169.47727594 -203.84277344 175.31738281 C-205.6410089 177.33079685 -207.46058356 179.32320213 -209.28027344 181.31738281 C-210.14523437 182.26613281 -211.01019531 183.21488281 -211.90136719 184.19238281 C-212.54203125 184.89363281 -213.18269531 185.59488281 -213.84277344 186.31738281 C-218.43516558 184.85190703 -221.60752845 182.21006 -225.15527344 179.06738281 C-226.29962585 178.07478748 -227.44545665 177.08389395 -228.59277344 176.09472656 C-229.42228516 175.37905518 -229.42228516 175.37905518 -230.26855469 174.64892578 C-233.34572108 172.04612406 -236.58205704 169.68300059 -239.84277344 167.31738281 C-236.80478062 162.29809033 -233.07997374 158.13548071 -229.12402344 153.81347656 C-227.22548602 151.73613854 -225.3681501 149.63555846 -223.53027344 147.50488281 C-214.81105464 137.51960746 -205.65761722 127.96612429 -196.26855469 118.61279297 C-194.57595997 116.92562323 -192.88886747 115.23308086 -191.20214844 113.54003906 C-185.58310048 107.91755243 -179.90327126 102.46780887 -173.84277344 97.31738281 C-172.23508971 95.86292764 -170.63037629 94.40517386 -169.03027344 92.94238281 C-163.78101461 88.21166779 -158.34718348 83.74654587 -152.84277344 79.31738281 C-151.72142042 78.40363839 -150.60033833 77.48956142 -149.47949219 76.57519531 C-116.88798659 50.10211145 -81.50101393 27.56051181 -43.91992188 8.89892578 C-41.28373243 7.54401978 -38.75540324 6.11205239 -36.22558594 4.57128906 C-24.52199721 -2.31893281 -13.19778193 -1.08112695 0 0 Z " fill="#27ACEB" transform="translate(492.8427734375,823.6826171875)"/>
<path d="M0 0 C0.99 0.495 0.99 0.495 2 1 C11.9 1.33 21.8 1.66 32 2 C32 92.75 32 183.5 32 277 C21.44 277 10.88 277 0 277 C0 185.59 0 94.18 0 0 Z " fill="#008BCC" transform="translate(1494,1890)"/>
<path d="M0 0 C1.08012893 3.24038679 0.9314719 4.58639551 0.3984375 7.89526367 C0.24076904 8.8902739 0.08310059 9.88528412 -0.0793457 10.91044617 C-0.25941162 11.98542862 -0.43947754 13.06041107 -0.625 14.16796875 C-0.90186646 15.83113884 -0.90186646 15.83113884 -1.18432617 17.52790833 C-1.58022719 19.87815771 -1.98066432 22.22764675 -2.38525391 24.57641602 C-2.99397889 28.15213137 -3.56553421 31.73257807 -4.13671875 35.31445312 C-4.52634555 37.59935177 -4.91820255 39.88387147 -5.3125 42.16796875 C-5.47637207 43.23283005 -5.64024414 44.29769135 -5.80908203 45.39482117 C-7.16971242 52.91473909 -9.56332955 56.75753193 -15 62 C-15.99834719 63.01892578 -16.99312927 64.0413512 -17.98522949 65.06636047 C-21.6532883 68.84593477 -25.36346358 72.58269824 -29.078125 76.31640625 C-29.75302727 76.99538404 -30.42792953 77.67436184 -31.12328339 78.37391472 C-34.69268001 81.96406046 -38.26526572 85.55099856 -41.84033203 89.13549805 C-45.50784841 92.81408717 -49.1635286 96.50421036 -52.81669998 100.1970377 C-55.6515029 103.05811239 -58.49527739 105.91014435 -61.34145355 108.75990105 C-62.69226297 110.11554486 -64.03972705 111.47453151 -65.38358307 112.83706856 C-78.5316611 126.15657136 -91.29201152 136.14265331 -110.78515625 137.0234375 C-124.36709013 136.92441976 -135.8462336 131.91138713 -146 123 C-144.48623919 119.43235715 -142.39486871 117.16293713 -139.6484375 114.453125 C-138.79765625 113.60878906 -137.946875 112.76445313 -137.0703125 111.89453125 C-136.18085937 111.02183594 -135.29140625 110.14914062 -134.375 109.25 C-133.4778125 108.36183594 -132.580625 107.47367188 -131.65625 106.55859375 C-129.44192996 104.36783031 -127.22307565 102.18187237 -125 100 C-122.40185386 101.03315543 -119.81712984 102.07896666 -117.25 103.1875 C-111.96462573 104.50884357 -107.24571614 104.28061789 -102.46408081 101.55389404 C-97.50804973 98.16164464 -93.44361583 93.70416912 -89.23095703 89.45800781 C-88.2551449 88.48163087 -87.27889085 87.50569543 -86.30223083 86.53016663 C-83.66387659 83.89238419 -81.03171725 81.24849853 -78.40065622 78.6034441 C-75.64560795 75.83585962 -72.88486239 73.07397013 -70.12472534 70.3114624 C-64.90412973 65.08466051 -59.68865165 59.85278314 -54.47500885 54.61904693 C-48.53698776 48.65864032 -42.59325968 42.70393867 -36.64905381 36.74970102 C-24.42635722 24.50612172 -12.21081941 12.25542451 0 0 Z " fill="#0074AB" transform="translate(1560,1016)"/>
<path d="M0 0 C4.70745077 3.9317076 9.1641171 8.02257286 13.48608398 12.37255859 C14.09182755 12.97815613 14.69757111 13.58375366 15.32167053 14.20770264 C17.29886146 16.18558341 19.27249876 18.16696914 21.24609375 20.1484375 C22.62592516 21.53013639 24.0059793 22.91161288 25.38624573 24.2928772 C29.0002185 27.91064913 32.61117673 31.53141519 36.22149658 35.15283203 C39.91341203 38.85501777 43.60819663 42.55433771 47.30273438 46.25390625 C54.53795303 53.49981631 61.76998741 60.74889555 69 68 C68.04555267 69.12016253 67.09015927 70.23951899 66.1343689 71.35853577 C65.60243612 71.98196397 65.07050335 72.60539217 64.5224514 73.24771214 C62.73031302 75.3104002 60.85396321 77.25959386 58.9140625 79.18359375 C58.21152344 79.88291016 57.50898437 80.58222656 56.78515625 81.30273438 C56.07230469 82.00720703 55.35945313 82.71167969 54.625 83.4375 C53.88894531 84.16904297 53.15289063 84.90058594 52.39453125 85.65429688 C50.59863926 87.43852723 48.80044015 89.22036124 47 91 C46.03956787 90.16992432 45.07913574 89.33984863 44.08959961 88.48461914 C41.271997 86.06552604 38.41571531 83.70262644 35.53344727 81.36108398 C0.23196044 52.38473848 0.23196044 52.38473848 -2.35231018 35.52882385 C-3.38732714 23.62495836 -2.12816952 11.72130292 0 0 Z " fill="#008ED1" transform="translate(1367,1047)"/>
<path d="M0 0 C2.59814614 1.03315543 5.18287016 2.07896666 7.75 3.1875 C13.0962307 4.52405767 18.01230825 4.14844412 22.8125 1.375 C23.534375 0.92125 24.25625 0.4675 25 0 C29.05313552 0.29650527 31.01889435 2.67310385 33.765625 5.47265625 C34.65507813 6.37177734 35.54453125 7.27089844 36.4609375 8.19726562 C37.38132812 9.14279297 38.30171875 10.08832031 39.25 11.0625 C40.19461673 12.02216973 41.13992195 12.98116229 42.0859375 13.93945312 C44.39749172 16.28638828 46.7017634 18.64003391 49 21 C46.0129132 27.53140291 39.43014942 30.47650278 33.0625 33.3046875 C20.73304593 37.79706837 7.5874077 38.57272898 -4.65234375 33.48046875 C-10.74253684 30.61635921 -15.94976166 27.43230887 -21 23 C-19.48623919 19.43235715 -17.39486871 17.16293713 -14.6484375 14.453125 C-13.79765625 13.60878906 -12.946875 12.76445313 -12.0703125 11.89453125 C-11.18085937 11.02183594 -10.29140625 10.14914062 -9.375 9.25 C-8.4778125 8.36183594 -7.580625 7.47367188 -6.65625 6.55859375 C-4.44192996 4.36783031 -2.22307565 2.18187237 0 0 Z " fill="#006392" transform="translate(1435,1116)"/>
<path d="M0 0 C10.56 0 21.12 0 32 0 C32 14.04435218 27.26144962 25.49340807 17.6875 35.8125 C7.37217096 45.41563483 -4.24353381 48.74941216 -18 50 C-18 39.44 -18 28.88 -18 18 C-15.03 17.01 -12.06 16.02 -9 15 C-4.7436776 12.31666632 -2.89410116 9.64054784 -1 5 C-0.67 3.35 -0.34 1.7 0 0 Z " fill="#006291" transform="translate(1494,2167)"/>
<path d="M0 0 C21.12 0 42.24 0 64 0 C62.02 2.31 60.04 4.62 58 7 C56.78606567 8.52935181 56.78606567 8.52935181 55.54760742 10.08959961 C38.15190562 31.90596262 38.15190562 31.90596262 26.29522705 33.4548645 C17.36728181 34.15178877 9.01632265 32.94312998 0 32 C0 21.44 0 10.88 0 0 Z " fill="#0074AC" transform="translate(1393,1911)"/>
<path d="M0 0 C6.334283 3.90398667 12.56094465 7.96558951 18.6875 12.1875 C19.62360107 12.81084229 19.62360107 12.81084229 20.57861328 13.44677734 C22.32421875 14.66796875 22.32421875 14.66796875 25 17 C25 21 25 21 23.3828125 23.1484375 C11.96247599 34.41070707 2.07707393 38.53844782 -14 40 C-14 29.44 -14 18.88 -14 8 C-10.7 6.68 -7.4 5.36 -4 4 C-1.44937334 1.96169749 -1.44937334 1.96169749 0 0 Z " fill="#005E8A" transform="translate(1220,2297)"/>
<path d="M0 0 C0.66 0 1.32 0 2 0 C0.4608199 3.66752005 -1.75485452 5.98580573 -4.5703125 8.765625 C-5.91416016 10.09980469 -5.91416016 10.09980469 -7.28515625 11.4609375 C-8.22230469 12.38132812 -9.15945313 13.30171875 -10.125 14.25 C-11.07988637 15.19484856 -12.03431859 16.14015633 -12.98828125 17.0859375 C-15.32109087 19.39518338 -17.65844086 21.69963203 -20 24 C-20 21 -20 21 -18.37939453 19.0546875 C-17.63802246 18.33539062 -16.89665039 17.61609375 -16.1328125 16.875 C-15.32972656 16.08609375 -14.52664063 15.2971875 -13.69921875 14.484375 C-12.84972656 13.66453125 -12.00023437 12.8446875 -11.125 12 C-9.45880721 10.37718436 -7.79465204 8.75227328 -6.1328125 7.125 C-5.01737061 6.04605469 -5.01737061 6.04605469 -3.87939453 4.9453125 C-1.83253314 2.94292159 -1.83253314 2.94292159 0 0 Z " fill="#0087C5" transform="translate(814,1587)"/>
</svg>
